<svg height="512" viewBox="0 0 64 64" width="512" xmlns="http://www.w3.org/2000/svg"><g id="Filled_outline" data-name="Filled outline"><circle cx="32" cy="32" fill="#f4f4e6" r="27"/><path d="m32 60a28.025 28.025 0 0 1 -27.521-33.184l1.965.368a26.029 26.029 0 0 0 25.556 30.816 30.468 30.468 0 0 0 12.555-2.9l.89 1.792a32.645 32.645 0 0 1 -13.445 3.108z" fill="#195c85"/><path d="m56.889 45.459-1.778-.918a28.592 28.592 0 0 0 2.889-12.541 25.955 25.955 0 0 0 -3.763-13.481l1.709-1.038a27.947 27.947 0 0 1 4.054 14.519 30.693 30.693 0 0 1 -3.111 13.459z" fill="#195c85"/><path d="m13.526 13.7-1.42-1.4a28.021 28.021 0 0 1 32.339-5.389l-.89 1.789a26.022 26.022 0 0 0 -30.029 5z" fill="#195c85"/><circle cx="32" cy="32" fill="#ffd782" r="10"/><g fill="#e97424"><path d="m33 25h2v3h-2z"/><path d="m29 25h2v3h-2z"/><path d="m29 36h2v3h-2z"/><path d="m33 36h2v3h-2z"/><path d="m35 33h-5a1 1 0 0 1 -1-1v-4a1 1 0 0 1 1-1h5a3 3 0 0 1 0 6zm-4-2h4a1 1 0 0 0 0-2h-4z"/><path d="m35 37h-5a1 1 0 0 1 -1-1v-4a1 1 0 0 1 1-1h5a3 3 0 0 1 0 6zm-4-2h4a1 1 0 0 0 0-2h-4z"/><path d="m27 27h3v2h-3z"/><path d="m27 35h4v2h-4z"/></g><path d="m37.343 20h11.314v2h-11.314z" fill="#32b1cc" transform="matrix(.707 -.707 .707 .707 -2.255 36.556)"/><path d="m40.5 37.964h2v7.071h-2z" fill="#32b1cc" transform="matrix(.707 -.707 .707 .707 -17.19 41.5)"/><path d="m20 21.838h2v6.325h-2z" fill="#32b1cc" transform="matrix(.316 -.949 .949 .316 -9.358 37.017)"/><path d="m38.955 29h22.091v2h-22.091z" fill="#32b1cc" transform="matrix(.09 -.996 .996 .09 15.607 77.086)"/><path d="m16.963 14h27.074v2h-27.074z" fill="#32b1cc" transform="matrix(.997 -.074 .074 .997 -1.029 2.305)"/><path d="m13 28.384h2v15.232h-2z" fill="#32b1cc" transform="matrix(.919 -.394 .394 .919 -13.049 8.426)"/><path d="m30.5 38.987h2v19.026h-2z" fill="#32b1cc" transform="matrix(.053 -.999 .999 .053 -18.589 77.407)"/><path d="m20.172 40h5.657v2h-5.657z" fill="#32b1cc" transform="matrix(.707 -.707 .707 .707 -22.255 28.272)"/><path d="m10 4h6v2h-6z" fill="#fcf05a"/><path d="m12 2h2v6h-2z" fill="#fcf05a"/><path d="m2 51h6v2h-6z" fill="#fcf05a"/><path d="m4 49h2v6h-2z" fill="#fcf05a"/><path d="m56 58h6v2h-6z" fill="#fcf05a"/><path d="m58 56h2v6h-2z" fill="#fcf05a"/><path d="m33 9h2v2h-2z" fill="#d9176c"/><path d="m16 31h2v2h-2z" fill="#d9176c"/><path d="m28 53h2v2h-2z" fill="#d9176c"/><path d="m45 24h2v2h-2z" fill="#d9176c"/><circle cx="51" cy="11" fill="#f9bb4b" r="8"/><circle cx="11" cy="21" fill="#f9bb4b" r="8"/><circle cx="49" cy="49" fill="#f9bb4b" r="8"/><circle cx="51" cy="9" fill="#d9176c" r="2"/><path d="m54 16a3 3 0 0 0 -6 0v2.413a7.96 7.96 0 0 0 6 0z" fill="#d9176c"/><circle cx="11" cy="19" fill="#d9176c" r="2"/><path d="m14 26a3 3 0 0 0 -6 0v2.413a7.96 7.96 0 0 0 6 0z" fill="#d9176c"/><circle cx="49" cy="47" fill="#d9176c" r="2"/><path d="m52 54a3 3 0 0 0 -6 0v2.413a7.96 7.96 0 0 0 6 0z" fill="#d9176c"/><circle cx="19" cy="46" fill="#f9bb4b" r="4"/><path d="m35 27v-2h-2v2h-2v-2h-2v2h-2v2h2v6h-2v2h2v2h2v-2h2v2h2v-2a2.987 2.987 0 0 0 2.22-5 2.987 2.987 0 0 0 -2.22-5zm0 8h-4v-2h4a1 1 0 0 1 0 2zm0-4h-4v-2h4a1 1 0 0 1 0 2z"/><path d="m54 9a3 3 0 1 0 -3 3 3 3 0 0 0 3-3zm-3 1a1 1 0 1 1 1-1 1 1 0 0 1 -1 1z"/><path d="m14 19a3 3 0 1 0 -3 3 3 3 0 0 0 3-3zm-3 1a1 1 0 1 1 1-1 1 1 0 0 1 -1 1z"/><path d="m52 47a3 3 0 1 0 -3 3 3 3 0 0 0 3-3zm-3 1a1 1 0 1 1 1-1 1 1 0 0 1 -1 1z"/><path d="m2 21a8.958 8.958 0 0 0 2.428 6.129 27.995 27.995 0 0 0 27.572 32.871 32.788 32.788 0 0 0 13.05-2.925 8.98 8.98 0 0 0 12.028-12.018 30.867 30.867 0 0 0 2.922-13.057 27.951 27.951 0 0 0 -3.642-13.786 8.989 8.989 0 1 0 -13.066-11.836 27.986 27.986 0 0 0 -30.987 5.728 8.916 8.916 0 0 0 -1.305-.106 9.01 9.01 0 0 0 -9 9zm30 37a25.829 25.829 0 0 1 -25.756-29.374 8.926 8.926 0 0 0 4.082 1.34l5.3 12.368a4.982 4.982 0 1 0 7.306 6.716l17.119.9a8.978 8.978 0 0 0 3.032 5.814 30.972 30.972 0 0 1 -11.083 2.236zm-8.448-18.966-2.447 2.447a4.761 4.761 0 0 0 -3.746-.182l-4.9-11.429a9.013 9.013 0 0 0 6.415-4.524l3.587 1.2a10.945 10.945 0 0 0 1.089 12.492zm26.359-19.107-1.829 20.12a8.943 8.943 0 0 0 -4.693 1.928l-2.941-2.941a10.97 10.97 0 0 0 0-14.068l6.134-6.134a8.914 8.914 0 0 0 3.329 1.095zm-.911-2.227v-1.7a2 2 0 0 1 4 0v1.7a6.927 6.927 0 0 1 -4 0zm-26.279 24.993 2.245-2.245a10.97 10.97 0 0 0 14.068 0l2.941 2.941a8.949 8.949 0 0 0 -1.908 4.561l-16.197-.85a4.863 4.863 0 0 0 -1.149-4.4zm18.279-10.693a9 9 0 1 1 -9-9 9.01 9.01 0 0 1 9 9zm-19 14a3 3 0 1 1 -3-3 3 3 0 0 1 3 3zm-9-18.3a6.927 6.927 0 0 1 -4 0v-1.7a2 2 0 0 1 4 0zm38 28a6.927 6.927 0 0 1 -4 0v-1.7a2 2 0 0 1 4 0zm2-.969v-.731a4 4 0 0 0 -8 0v.736a7 7 0 1 1 8 0zm5-22.731a29.342 29.342 0 0 1 -2.217 11.1 8.978 8.978 0 0 0 -5.694-3.03l1.829-20.12a8.925 8.925 0 0 0 2.717-.726 25.96 25.96 0 0 1 3.365 12.776zm-7-28a6.994 6.994 0 0 1 4 12.736v-.736a4 4 0 0 0 -8 0v.736a6.994 6.994 0 0 1 4-12.736zm-6.054 13.64-5.912 5.912a10.964 10.964 0 0 0 -15.363 1.284l-4.03-1.343a8.9 8.9 0 0 0 -.66-6.637l24.006-1.778a9.052 9.052 0 0 0 1.959 2.562zm-12.946-11.64a25.738 25.738 0 0 1 10.454 2.194 8.809 8.809 0 0 0 -.19 4.932l-24.621 1.824a9.016 9.016 0 0 0 -3.1-2.219 25.8 25.8 0 0 1 17.457-6.731zm-21 8a6.994 6.994 0 0 1 4 12.736v-.736a4 4 0 0 0 -8 0v.736a6.994 6.994 0 0 1 4-12.736z"/><path d="m12 2v2h-2v2h2v2h2v-2h2v-2h-2v-2z"/><path d="m4 55h2v-2h2v-2h-2v-2h-2v2h-2v2h2z"/><path d="m60 56h-2v2h-2v2h2v2h2v-2h2v-2h-2z"/><path d="m33 9h2v2h-2z"/><path d="m16 31h2v2h-2z"/><path d="m28 53h2v2h-2z"/><path d="m45 24h2v2h-2z"/></g></svg>