<svg id="_x33_0" enable-background="new 0 0 64 64" height="512" viewBox="0 0 64 64" width="512" xmlns="http://www.w3.org/2000/svg"><g><g><g><path d="m24 56v6h-8.32c-3.22 0-6.14-1.31-8.26-3.42-2.11-2.12-3.42-5.04-3.42-8.26 0-1.88.6-3.67 1.66-5.13 1.05-1.46 2.55-2.59 4.34-3.19 2.19 0 4.24.58 6 1.6 3.58 2.07 6 5.95 6 10.4v2z" fill="#b4dd7f"/></g><g><path d="m44 50 .06-.24c.6-2.41 2.03-4.44 3.95-5.81 1.7-1.24 3.78-1.95 5.99-1.95 1.79.6 3.29 1.73 4.34 3.19 1.06 1.46 1.66 3.25 1.66 5.13v.68c0 6.08-4.92 11-11 11-3.04 0-5.79-1.23-7.78-3.22s-3.22-4.74-3.22-7.78v-1z" fill="#fcd770"/></g><g><path d="m51.49 21.33c-.03.03-.05.05-.08.08-.36.37-.86.59-1.41.59h-6c-2.21 0-4-1.79-4-4 0-1.1.45-2.1 1.17-2.83.73-.72 1.73-1.17 2.83-1.17h5.44c6.94 0 12.56 5.62 12.56 12.56v9.14c0 .85-.25 1.68-.72 2.38-.8 1.2-2.14 1.92-3.58 1.92h-3.7v-10c.55 0 1.05-.22 1.41-.59.37-.36.59-.86.59-1.41s-.22-1.05-.59-1.41c-.36-.37-.86-.59-1.41-.59 0-1.87-.94-3.62-2.5-4.66z" fill="#656d78"/></g><g><path d="m22 13v1.58s0 2.1 0 3.12c0 1.44-.72 2.78-1.92 3.58l-.04.03c-.01.01-.03.02-.04.02-.67.44-1.46.67-2.26.67h-2.62c-2.42 0-4.53 1.65-5.12 4-.55 0-1.05.22-1.41.59-.37.36-.59.86-.59 1.41s.22 1.05.59 1.41c.36.37.86.59 1.41.59v6c-4.81-1.8-8-6.4-8-11.54v-1.06c0-2.2.77-4.33 2.18-6.02.9-1.07 2-1.92 3.24-2.49 1.23-.58 2.59-.89 3.99-.89h4.43c2.09 0 4.17-.34 6.16-1z" fill="#b27946"/></g><g><path d="m40 4v8c0 1.1-.9 2-2 2h-4l-1.66 3.32c-.21.42-.64.68-1.1.68-.69 0-1.24-.55-1.24-1.24v-2.76h-6c-1.1 0-2-.9-2-2v-8c0-1.1.9-2 2-2h14c1.1 0 2 .9 2 2z" fill="#e6e9ed"/></g><g><path d="m26 42v-8c0-1.1.9-2 2-2h4l1.66-3.32c.21-.42.64-.68 1.1-.68.69 0 1.24.55 1.24 1.24v2.76h6c1.1 0 2 .9 2 2v.46 7.54c0 1.1-.9 2-2 2h-1-13c-1.1 0-2-.9-2-2z" fill="#e6e9ed"/></g><g><path d="m55.41 26.59c-.36-.37-.86-.59-1.41-.59 0-1.87-.94-3.62-2.5-4.66l-.01-.01c-.03.03-.05.05-.08.08-.36.37-.86.59-1.41.59h-6v2.34c0 1.06-.42 2.08-1.17 2.83l-.42.42c-.26.26-.41.62-.41 1 0 .78.63 1.41 1.41 1.41h.59v6l.35-.01c.57 1.19 1.78 2.01 3.19 2.01.15 0 .31-.01.46-.04v.01 5.97l.01.01c1.7-1.24 3.78-1.95 5.99-1.95v-2-10c.55 0 1.05-.22 1.41-.59.37-.36.59-.86.59-1.41s-.22-1.05-.59-1.41z" fill="#f0d0b4"/></g><g><path d="m44 47v3h-6v-3c0-1.66 1.34-3 3-3 .83 0 1.58.34 2.12.88s.88 1.29.88 2.12z" fill="#f0d0b4"/></g><g><path d="m33.12 56.88c.54.54.88 1.29.88 2.12 0 1.66-1.34 3-3 3h-7v-6h2c0-.55.22-1.05.59-1.41.36-.37.86-.59 1.41-.59s1.05.22 1.41.59c.37.36.59.86.59 1.41h1c.83 0 1.58.34 2.12.88z" fill="#f0d0b4"/></g><g><path d="m21.59 27.59-.42-.42c-.75-.75-1.17-1.77-1.17-2.83v-3.01c-.67.44-1.46.67-2.26.67h-2.62c-2.42 0-4.53 1.65-5.12 4-.55 0-1.05.22-1.41.59-.37.36-.59.86-.59 1.41s.22 1.05.59 1.41c.36.37.86.59 1.41.59v6 6c2.19 0 4.24.58 6 1.6v-5.63-.01l.46.04c1.41 0 2.62-.82 3.19-2.01l.35.01v-6h.59c.78 0 1.41-.63 1.41-1.41 0-.38-.15-.74-.41-1z" fill="#f0d0b4"/></g><g><path d="m44 32h4c0 1.04-.4 2-1.06 2.71s-1.57 1.19-2.59 1.28c-.22-.46-.35-.98-.35-1.53v-.46z" fill="#ff826e"/></g><g><path d="m20 32v2.46c0 .55-.13 1.07-.35 1.53-1.02-.09-1.93-.57-2.59-1.28s-1.06-1.67-1.06-2.71z" fill="#ff826e"/></g></g><g><path d="m31 55h-.171c-.413-1.164-1.525-2-2.829-2s-2.416.836-2.829 2h-2.171v-1c0-4.59-2.398-8.623-6-10.937v-4.117c2.247-.268 4-2.163 4-4.481v-3.5c1.135-.197 2-1.188 2-2.379 0-.636-.258-1.258-.707-1.707l-.414-.414c-.566-.568-.879-1.32-.879-2.122v-2.509c1.258-1.004 2.002-2.516 2.001-4.139v-2.879c.314.112.647.184.999.184h5v1.764c0 1.233 1.003 2.236 2.236 2.236.852 0 1.617-.474 2-1.236l1.382-2.764h3.382c1.654 0 3-1.346 3-3v-8c0-1.654-1.346-3-3-3h-14c-1.654 0-3 1.346-3 3v8c0 .083.018.161.024.242-1.687.493-3.426.758-5.186.758h-4.433c-3.097 0-6.01 1.364-7.994 3.744-1.555 1.866-2.411 4.233-2.411 6.661v1.051c0 5.291 3.188 10.114 8 12.217v4.635c-3.617 1.512-6 5.048-6 9.017 0 6.988 5.687 12.675 12.676 12.675h15.324c2.206 0 4-1.794 4-4s-1.794-4-4-4zm-12.035-20.19c-.832-.31-1.493-.978-1.791-1.81h1.826v1.465c0 .118-.019.231-.035.345zm1.621-5.81h-1.586v2h-4v1c0 1.987 1.2 3.733 2.923 4.531-.413.293-.914.469-1.458.469-.678 0-1.314-.264-1.793-.742l-.965-.965-1.414 1.414.965.965c.497.497 1.096.847 1.742 1.068v3.264c-1.247-.522-2.593-.844-4-.952v-12.052h-1c-.552 0-1-.448-1-1s.448-1 1-1h.78l.189-.758c.478-1.908 2.185-3.241 4.151-3.241h.002l2.622.001c.426 0 .845-.065 1.255-.169v1.51c0 1.336.521 2.592 1.465 3.536l.414.414c.078.077.122.184.122.293 0 .228-.186.414-.414.414zm2.414-25c0-.552.448-1 1-1h14c.552 0 1 .448 1 1v8c0 .552-.448 1-1 1h-4.618l-1.934 3.868c-.1.198-.449.115-.448-.104v-3.764h-7c-.552 0-1-.448-1-1v-.388zm-20 20.456v-1.051c0-1.962.691-3.873 1.948-5.381 1.602-1.921 3.955-3.024 6.457-3.024h4.433c1.747 0 3.478-.222 5.162-.661l.001 3.357c.001 1.106-.552 2.136-1.516 2.778-.518.345-1.119.527-1.74.527l-2.622-.001s-.001 0-.002 0c-2.654 0-4.986 1.654-5.889 4.099-1.283.34-2.232 1.511-2.232 2.901 0 1.304.836 2.416 2 2.829v3.623c-3.641-1.948-6-5.799-6-9.996zm2 25.868c0-3.299 2.076-6.213 5.174-7.315 5.984.094 10.826 4.984 10.826 10.991v1h-4.236c-3.178 0-5.764-2.586-5.764-5.764 0-1.144-.636-2.172-1.658-2.684l-.895-.447-.895 1.789.895.447c.341.171.553.513.553.895 0 4.282 3.482 7.764 7.764 7.764h6.236v4h-7.324c-5.887 0-10.676-4.789-10.676-10.676zm26 10.676h-6v-4h2v-1c0-.552.448-1 1-1s1 .448 1 1v1h2c1.103 0 2 .897 2 2s-.897 2-2 2z"/><circle cx="16" cy="26" r="1"/><circle cx="48" cy="26" r="1"/><path d="m49.438 13h-5.438c-2.757 0-5 2.243-5 5 0 2.414 1.721 4.434 4 4.899v1.444c0 .802-.313 1.556-.879 2.122l-.414.414c-.449.449-.707 1.071-.707 1.707 0 1.19.865 2.182 2 2.379v.219c-.314-.112-.648-.184-1-.184h-5v-1.764c0-1.233-1.003-2.236-2.236-2.236-.852 0-1.617.474-2 1.236l-1.382 2.764h-3.382c-1.654 0-3 1.346-3 3v8c0 1.654 1.346 3 3 3h9.556c-.344.591-.556 1.268-.556 2v4c0 6.617 5.383 12 12 12s12-5.383 12-12v-.676c0-3.969-2.383-7.505-6-9.017v-.307h2.697c1.777 0 3.427-.883 4.412-2.361.583-.873.891-1.891.891-2.942v-9.135c0-7.478-6.084-13.562-13.562-13.562zm-6.317 15.293.414-.414c.944-.944 1.465-2.2 1.465-3.536v-1.343h5c.542 0 1.045-.156 1.484-.409.957.867 1.516 2.096 1.516 3.409v1h1c.552 0 1 .448 1 1s-.448 1-1 1h-1v12.046c-1.42.125-2.769.522-4 1.133v-3.439c.646-.221 1.245-.57 1.742-1.068l.965-.965-1.414-1.414-.965.965c-.478.478-1.115.742-1.793.742-.544 0-1.045-.176-1.459-.469 1.723-.799 2.924-2.544 2.924-4.531v-1h-4v-2h-1.586c-.228 0-.414-.186-.414-.414 0-.109.044-.216.121-.293zm1.673 17.502c-.181-.569-.477-1.083-.874-1.51.655-.55 1.08-1.365 1.08-2.285v-3.776c.583.394 1.268.635 2 .722v4.497c-.841.669-1.583 1.462-2.206 2.352zm.241-10.985c-.016-.114-.035-.227-.035-.345v-.465-1h1.826c-.298.832-.959 1.5-1.791 1.81zm-18.035 7.19v-8c0-.552.448-1 1-1h4.618l1.934-3.868c.1-.198.448-.115.448.104v3.764h7c.552 0 1 .448 1 1v.465 7.535c0 .552-.448 1-1 1h-14c-.552 0-1-.448-1-1zm16 5v2h-4v-2c0-1.103.897-2 2-2s2 .897 2 2zm16 3.324v.676c0 5.514-4.486 10-10 10s-10-4.486-10-10h4v1c0 2.757 2.243 5 5 5s5-2.243 5-5v-3.764c0-.382.212-.725.553-.895l.895-.447-.895-1.789-.895.447c-1.022.512-1.658 1.541-1.658 2.684v3.764c0 1.654-1.346 3-3 3s-3-1.346-3-3v-1.878l.029-.119c1.017-4.065 4.619-6.916 8.794-6.995 3.1 1.101 5.177 4.016 5.177 7.316zm2-14.627c0 .654-.191 1.288-.555 1.832-.613.921-1.64 1.471-2.748 1.471h-2.697v-8.171c1.164-.413 2-1.525 2-2.829 0-1.324-.862-2.45-2.054-2.848-.203-1.58-.974-3.024-2.155-4.074.131-.336.209-.697.209-1.078 0-1.654-1.346-3-3-3h-1v2h1c.552 0 1 .448 1 1s-.448 1-1 1h-6c-1.654 0-3-1.346-3-3s1.346-3 3-3h5.438c6.375 0 11.562 5.187 11.562 11.563z"/><path d="m25 5h12v2h-12z"/><path d="m35 9h2v2h-2z"/><path d="m29 35h12v2h-12z"/><path d="m29 39h8v2h-8z"/><path d="m39 39h2v2h-2z"/><path d="m25 9h8v2h-8z"/></g></g></svg>