<svg id="_x33_0" enable-background="new 0 0 64 64" height="512" viewBox="0 0 64 64" width="512" xmlns="http://www.w3.org/2000/svg"><g><g><g><path d="m54.84 20.16c-.26-.23-.54-.44-.84-.64-1.43-.96-3.15-1.52-5-1.52-.34 0-.67.02-1 .06h-.01c.01-.17.01-.33.01-.49 0-1.99-.35-3.94-1.01-5.79h.01c.74-2.08 1.87-4.01 3.36-5.69l3.64-4.09 3.64 4.09c1.4 1.58 2.5 3.39 3.23 5.34.74 1.95 1.13 4.03 1.13 6.14 0 4.06-1.45 7.93-4 10.96v-1.53c0-2.48-1.01-4.74-2.64-6.36-.17-.17-.34-.33-.52-.48z" fill="#a0d468"/></g><g><path d="m40 27v5c-2.49-1.56-4.49-3.7-5.87-6.18-1.37-2.49-2.13-5.32-2.13-8.25 0-4.23 1.55-8.32 4.36-11.48l3.64-4.09 3.64 4.09c1.4 1.58 2.5 3.39 3.23 5.34.04.12.09.23.12.35.66 1.85 1.01 3.8 1.01 5.79 0 .16 0 .32-.01.49-4.5.5-7.99 4.31-7.99 8.94z" fill="#b4dd7f"/></g><g><path d="m6 22c0 .66.08 1.33.24 1.97l.6 2.4c-.51.37-.84.96-.84 1.63 0 .24.04.46.12.67-2.62-3.05-4.12-6.97-4.12-11.1 0-2.11.39-4.19 1.13-6.14.73-1.95 1.83-3.76 3.23-5.34l3.64-4.09 3.64 4.09c1.49 1.68 2.62 3.61 3.36 5.68h.01c-.49 1.36-.8 2.77-.93 4.23h-2.84c-1.37 0-2.63.77-3.24 2-1.1 0-2.1.45-2.83 1.17-.72.73-1.17 1.73-1.17 2.83z" fill="#b4dd7f"/></g><g><path d="m27.64 6.09-3.64-4.09-3.64 4.09c-1.48 1.67-2.61 3.6-3.35 5.68-.49 1.36-.8 2.77-.93 4.23h1.69c3.44 0 6.23 2.79 6.23 6.23 0 .51-.06 1.02-.19 1.51l-.65 2.63c.51.37.84.96.84 1.63 0 .55-.22 1.05-.59 1.41-.36.37-.86.59-1.41.59l2 2c2.49-1.56 4.49-3.7 5.87-6.18 1.37-2.49 2.13-5.32 2.13-8.25 0-4.23-1.55-8.32-4.36-11.48z" fill="#a0d468"/></g><g><path d="m16.08 16h1.69c3.44 0 6.23 2.79 6.23 6.23 0 .51-.06 1.02-.19 1.51l-.65 2.63c-.33-.24-.73-.37-1.16-.37h-2v-1c0-1.66-1.34-3-3-3h-4c-1.66 0-3 1.34-3 3v1h-2c-.43 0-.83.13-1.16.37l-.6-2.4c-.16-.64-.24-1.31-.24-1.97 0-1.1.45-2.1 1.17-2.83.73-.72 1.73-1.17 2.83-1.17.61-1.23 1.87-2 3.24-2z" fill="#656d78"/></g><g><path d="m8 56c-3.31 0-6-2.69-6-6v-1.07c0-4.75 2.79-8.99 7.02-10.91l2.98 2.98 3-2 3 2 2.98-2.98c1.12.5 2.13 1.17 3.02 1.98 2.49 2.21 4 5.43 4 8.93v1.07c0 3.31-2.69 6-6 6v-2-2-7c0-.55-.45-1-1-1h-12c-.55 0-1 .45-1 1v7 2z" fill="#fcd770"/></g><g><path d="m20.98 38.02-2.98 2.98-3-2 3-2 1.45.43c.53.16 1.04.36 1.53.59z" fill="#ffc729"/></g><g><path d="m12 37 3 2-3 2-2.98-2.98c.49-.23 1-.43 1.53-.59z" fill="#ffc729"/></g><g><path d="m15 58v4h-10c-1.66 0-3-1.34-3-3 0-.83.34-1.58.88-2.12s1.29-.88 2.12-.88l3 .18c4.21.81 5.44 1.2 6.64 1.68z" fill="#d3a06c"/></g><g><path d="m21 60c0-1.1-.9-2-2-2h-4l.36-.14c2.13-.86 4.36-1.42 6.64-1.68.99-.12 2-.18 3-.18.83 0 1.58.34 2.12.88s.88 1.29.88 2.12-.34 1.58-.88 2.12-1.29.88-2.12.88h-6c.55 0 1.05-.22 1.41-.59.37-.36.59-.86.59-1.41z" fill="#d3a06c"/></g><g><path d="m55 60c0-1.1-.9-2-2-2h-4l.36-.14c2.13-.86 4.36-1.42 6.64-1.68.99-.12 2-.18 3-.18.83 0 1.58.34 2.12.88s.88 1.29.88 2.12-.34 1.58-.88 2.12-1.29.88-2.12.88h-6c.55 0 1.05-.22 1.41-.59.37-.36.59-.86.59-1.41z" fill="#d3a06c"/></g><g><path d="m49 58v4h-10c-1.66 0-3-1.34-3-3 0-.83.34-1.58.88-2.12s1.29-.88 2.12-.88l3 .18c4.21.81 5.44 1.2 6.64 1.68z" fill="#d3a06c"/></g><g><path d="m42 56c-3.31 0-6-2.69-6-6v-1.07c0-3.5 1.51-6.72 4-8.93 1.29-1.16 2.83-2.05 4.55-2.57l1.45-.43c0 1.66 1.34 3 3 3 .83 0 1.58-.34 2.12-.88s.88-1.29.88-2.12l1.45.43c1.72.52 3.26 1.41 4.55 2.57 2.49 2.21 4 5.43 4 8.93v1.07c0 3.31-2.69 6-6 6v-2-2-7c0-.55-.45-1-1-1h-12c-.55 0-1 .45-1 1v7 2z" fill="#ef7385"/></g><g><path d="m49.36 57.86-.36.14-.36-.14c-1.2-.48-2.43-.87-6.64-1.68v-.01-.17-2h14v2 .17.01c-2.28.26-4.51.82-6.64 1.68z" fill="#aab2bd"/></g><g><path d="m15.36 57.86-.36.14-.36-.14c-1.2-.48-2.43-.87-6.64-1.68v-.01-.17-2h14v2 .17.01c-2.28.26-4.51.82-6.64 1.68z" fill="#aab2bd"/></g><g><path d="m56 54h-14v-2-7c0-.55.45-1 1-1h12c.55 0 1 .45 1 1v7z" fill="#ccd1d9"/></g><g><path d="m22 54h-14v-2-7c0-.55.45-1 1-1h12c.55 0 1 .45 1 1v7z" fill="#ccd1d9"/></g><g><path d="m55.36 20.64c-.17-.17-.34-.33-.52-.48-.26-.23-.54-.44-.84-.64-1.43-.96-3.15-1.52-5-1.52-.34 0-.67.02-1 .06h-.01c-4.5.5-7.99 4.31-7.99 8.94v5 8c1.29-1.16 2.83-2.05 4.55-2.57l1.45-.43.71-3.55c-1.61-.84-2.71-2.52-2.71-4.45v-3c0-2.21 1.79-4 4-4h.17.01c.4 1.17 1.51 2 2.82 2h1c1.1 0 2 .9 2 2v3c0 1.38-.56 2.63-1.46 3.54-.37.36-.78.67-1.25.91l.71 3.55 1.45.43c1.72.52 3.26 1.41 4.55 2.57v-11.47-1.53c0-2.48-1.01-4.74-2.64-6.36z" fill="#656d78"/></g><g><path d="m53 58c1.1 0 2 .9 2 2 0 .55-.22 1.05-.59 1.41-.36.37-.86.59-1.41.59h-4v-4z" fill="#f0d0b4"/></g><g><path d="m51.29 33.45.71 3.55c0 .83-.34 1.58-.88 2.12s-1.29.88-2.12.88c-1.66 0-3-1.34-3-3l.71-3.55c.68.35 1.46.55 2.29.55s1.61-.2 2.29-.55z" fill="#f0d0b4"/></g><g><path d="m54 26v3c0 1.38-.56 2.63-1.46 3.54-.37.36-.78.67-1.25.91-.68.35-1.46.55-2.29.55s-1.61-.2-2.29-.55c-1.61-.84-2.71-2.52-2.71-4.45v-3c0-2.21 1.79-4 4-4h.17.01c.4 1.17 1.51 2 2.82 2h1c1.1 0 2 .9 2 2z" fill="#f0d0b4"/></g><g><path d="m19 58c1.1 0 2 .9 2 2 0 .55-.22 1.05-.59 1.41-.36.37-.86.59-1.41.59h-4v-4z" fill="#f0d0b4"/></g><g><path d="m19.9 30c.07-.32.1-.66.1-1v-3h2c.43 0 .83.13 1.16.37.51.37.84.96.84 1.63 0 .55-.22 1.05-.59 1.41-.36.37-.86.59-1.41.59z" fill="#f0d0b4"/></g><g><path d="m17.29 33.45.71 3.55-3 2-3-2 .71-3.55c.68.35 1.46.55 2.29.55s1.61-.2 2.29-.55z" fill="#f0d0b4"/></g><g><path d="m20 29c0 .34-.03.68-.1 1-.3 1.5-1.28 2.76-2.61 3.45-.68.35-1.46.55-2.29.55s-1.61-.2-2.29-.55c-.47-.24-.88-.55-1.25-.91-.68-.68-1.16-1.56-1.36-2.54-.07-.32-.1-.66-.1-1v-3-1c0-1.66 1.34-3 3-3h4c1.66 0 3 1.34 3 3v1z" fill="#f0d0b4"/></g><g><path d="m10.1 30h-2.1c-.55 0-1.05-.22-1.41-.59-.21-.21-.37-.46-.47-.74-.08-.21-.12-.43-.12-.67 0-.67.33-1.26.84-1.63.33-.24.73-.37 1.16-.37h2v3c0 .34.03.68.1 1z" fill="#f0d0b4"/></g></g><g><path d="m15 21h2v4h-2z"/><path d="m59 39.529v-10.662c2.575-3.198 4-7.19 4-11.301 0-4.479-1.639-8.79-4.615-12.138l-4.385-4.933-4.385 4.934c-1.043 1.174-1.906 2.471-2.611 3.857-.702-1.38-1.573-2.681-2.619-3.857l-4.385-4.934-4.385 4.934c-1.626 1.829-2.836 3.951-3.615 6.226-.779-2.275-1.989-4.397-3.615-6.226l-4.385-4.934-4.385 4.934c-1.038 1.168-1.911 2.472-2.616 3.862-.705-1.388-1.569-2.687-2.613-3.862l-4.386-4.934-4.385 4.934c-2.976 3.347-4.615 7.658-4.615 12.137 0 4.242 1.506 8.346 4.233 11.591.454 1.082 1.523 1.843 2.767 1.843h1.35c.425 1.198 1.216 2.222 2.244 2.934l-.456 2.281-.873.262c-5.542 1.662-9.265 6.666-9.265 12.452v1.071c0 2.124.955 4.027 2.454 5.312-1.44.606-2.454 2.03-2.454 3.688 0 2.206 1.794 4 4 4h20c2.206 0 4-1.794 4-4 0-1.658-1.014-3.082-2.454-3.688 1.499-1.285 2.454-3.188 2.454-5.312v-1.071c0-3.665-1.497-7.012-4-9.399v-6.997c3.313-2.214 5.736-5.385 7-9.033 1.264 3.648 3.687 6.818 7 9.033v6.997c-2.503 2.387-4 5.734-4 9.399v1.071c0 2.124.955 4.027 2.454 5.312-1.44.606-2.454 2.03-2.454 3.688 0 2.206 1.794 4 4 4h20c2.206 0 4-1.794 4-4 0-1.658-1.014-3.082-2.454-3.688 1.499-1.285 2.454-3.188 2.454-5.312v-1.071c0-3.665-1.497-7.013-4-9.4zm-5.264-3.052-.873-.262-.456-2.281c1.564-1.084 2.593-2.89 2.593-4.934v-3c0-1.654-1.346-3-3-3h-1c-1.103 0-2-.897-2-2v-2c4.411 0 8 3.589 8 8v10.974c-.996-.631-2.086-1.144-3.264-1.497zm-2.736-11.477h1c.551 0 1 .448 1 1v3c0 2.206-1.794 4-4 4s-4-1.794-4-4v-3c0-1.503 1.112-2.752 2.556-2.967.697 1.176 1.98 1.967 3.444 1.967zm-3.539 9.793c.492.13 1.006.207 1.539.207s1.047-.077 1.539-.207l.455 2.273c-.036 1.071-.914 1.934-1.994 1.934s-1.958-.863-1.993-1.934zm3.649-28.036 2.89-3.252 2.89 3.252c2.65 2.981 4.11 6.82 4.11 10.81 0 2.804-.742 5.548-2.121 7.959-.307-2.065-1.244-3.924-2.614-5.376l1.442-1.442-1.414-1.414-1.293 1.292v-4.283l1.832-2.748-1.664-1.109-1.168 1.751-1.168-1.752-1.664 1.109 1.832 2.749v3.538c-1.226-.538-2.578-.841-4-.841-.009 0-.017.001-.026.001-.055-1.774-.367-3.512-.917-5.173.705-1.868 1.724-3.576 3.053-5.071zm-44 0 2.89-3.252 2.89 3.252c1.327 1.492 2.344 3.197 3.048 5.061-.344 1.035-.589 2.101-.743 3.182h-1.959c-.802 0-1.566.206-2.236.577v-1.274l1.832-2.748-1.664-1.109-1.168 1.751-1.168-1.752-1.664 1.109 1.832 2.749v2.82c-2.276.467-4 2.465-4 4.877 0 .746.092 1.49.272 2.212l.461 1.845c-.054.063-.109.124-.158.192-1.663-2.578-2.575-5.587-2.575-8.683 0-3.989 1.459-7.828 4.11-10.809zm.89 22.243c-.551 0-1-.448-1-1s.449-1 1-1h1v2zm1-4h-1c-.157 0-.307.023-.457.046l-.33-1.32c-.141-.563-.213-1.144-.213-1.726 0-1.654 1.346-3 3-3h.618l.276-.553c.447-.892 1.344-1.447 2.342-1.447h4.531c2.885 0 5.233 2.348 5.233 5.232 0 .428-.053.854-.156 1.27l-.386 1.544c-.151-.023-.301-.046-.458-.046h-1v-2h-2v6c0 2.206-1.794 4-4 4s-4-1.794-4-4v-4c0-1.103.897-2 2-2v-2c-2.206 0-4 1.794-4 4zm12 2h1c.551 0 1 .448 1 1s-.449 1-1 1h-1zm-2.837 11.093.998.299c.008.002.016.006.024.008l-1.312 1.312-1.07-.712zm-3.163-3.093c.533 0 1.047-.077 1.539-.207l.349 1.747-1.888 1.258-1.888-1.258.349-1.747c.492.13 1.006.207 1.539.207zm-3.163 3.093 1.36.907-1.07.713-1.312-1.312c.008-.003.016-.006.024-.008zm3.163 18.831c-1.944-.777-3.951-1.317-6-1.624v-.3h12v.3c-2.049.307-4.057.847-6 1.624zm6-3.924h-12v-8h12zm-18 6c0-1.103.897-2 2-2 3.095 0 6.119.577 9 1.692v2.308h-9c-1.103 0-2-.897-2-2zm16 2h-3v-2h3c.551 0 1 .448 1 1s-.449 1-1 1zm6 0h-3.171c.11-.312.171-.649.171-1 0-1.105-.602-2.074-1.495-2.594 1.476-.27 2.977-.406 4.495-.406 1.103 0 2 .897 2 2s-.897 2-2 2zm2-12.071v1.071c0 2.414-1.721 4.434-4 4.899v-1.899h2v-2h-2v-6c0-1.103-.897-2-2-2h-12c-1.103 0-2 .897-2 2v6h-2v2h2v1.899c-2.279-.465-4-2.485-4-4.899v-1.071c0-4.151 2.27-7.819 5.816-9.698l3.056 3.057 3.128-2.086 3.127 2.085 3.056-3.057c3.547 1.88 5.817 5.548 5.817 9.699zm-7.264-12.452-.873-.262-.456-2.281c1.027-.712 1.818-1.736 2.244-2.934h1.349c.352 0 .686-.072 1-.184v7.158c-.996-.631-2.086-1.144-3.264-1.497zm5.264-6.414v-4.649l2.707-2.707-1.414-1.414-1.293 1.293v-4.172l2.707-2.707-1.414-1.414-1.293 1.293v-3.889l-2.168-3.252-1.664 1.109 1.832 2.749v4.951c-1.318-1.385-3.174-2.254-5.233-2.254h-.557c.49-3.044 1.849-5.935 3.9-8.243l2.89-3.252 2.89 3.252c2.65 2.981 4.11 6.82 4.11 10.81 0 4.927-2.215 9.473-6 12.496zm8-12.497c0-3.989 1.459-7.828 4.11-10.81l2.89-3.251 2.89 3.252c2.57 2.891 4.008 6.589 4.093 10.448-2.436.501-4.543 1.898-5.983 3.821v-8.723l1.832-2.748-1.664-1.109-2.168 3.251v3.889l-1.293-1.293-1.414 1.414 2.707 2.707v4.172l-1.293-1.293-1.414 1.414 2.707 2.707v4.649c-3.785-3.023-6-7.569-6-12.497zm8 9.434c0-3.719 2.555-6.845 6-7.737v1.737c0 .033 0 .066.001.101-2.28.463-4.001 2.484-4.001 4.899v3c0 2.044 1.029 3.85 2.594 4.934l-.456 2.281-.873.262c-1.179.354-2.269.866-3.265 1.497zm8 29.924c-1.944-.777-3.951-1.317-6-1.624v-.3h12v.3c-2.049.307-4.057.847-6 1.624zm6-3.924h-12v-8h12zm-18 6c0-1.103.897-2 2-2 3.095 0 6.119.577 9 1.692v2.308h-9c-1.103 0-2-.897-2-2zm16 2h-3v-2h3c.551 0 1 .448 1 1s-.449 1-1 1zm6 0h-3.171c.11-.312.171-.649.171-1 0-1.105-.602-2.074-1.495-2.594 1.476-.27 2.977-.406 4.495-.406 1.103 0 2 .897 2 2s-.897 2-2 2zm2-11c0 2.414-1.721 4.434-4 4.899v-1.899h2v-2h-2v-6c0-1.103-.897-2-2-2h-12c-1.103 0-2 .897-2 2v6h-2v2h2v1.899c-2.279-.465-4-2.484-4-4.899v-1.071c0-4.896 3.15-9.13 7.839-10.536l.388-.117c.537 1.578 2.016 2.724 3.773 2.724s3.236-1.146 3.772-2.724l.389.117c4.689 1.406 7.839 5.64 7.839 10.536z"/></g></g></svg>