<svg id="_x33_0" enable-background="new 0 0 62.48 62" height="512" viewBox="0 0 62.48 62" width="512" xmlns="http://www.w3.org/2000/svg"><g><g><g><path d="m18 33 1.86 5.58c-.9.27-1.87.42-2.86.42s-1.96-.15-2.86-.42l1.86-5.58z" fill="#ff826e"/></g><g><path d="m19.2 31.2-1.2 1.8h-2l-1.2-1.8 2.2-2.2z" fill="#fc6e51"/></g><g><path d="m21 33 1.55-4.64c1.59.83 2.98 2.01 4.05 3.44-.95 3.25-3.5 5.82-6.74 6.78l-1.86-5.58 1.2-1.8z" fill="#e6e9ed"/></g><g><path d="m13 33 1.8-1.8 1.2 1.8-1.86 5.58c-3.24-.96-5.79-3.53-6.74-6.78 1.07-1.42 2.45-2.61 4.05-3.44z" fill="#e6e9ed"/></g><g><path d="m19 29c1.24 0 2.42-.28 3.47-.79l.08.15-1.55 4.64-1.8-1.8-2.2-2.2z" fill="#ccd1d9"/></g><g><path d="m14.8 31.2-1.8 1.8-1.55-4.64c.06-.04.13-.07.19-.1 1.02.47 2.16.74 3.36.74h2z" fill="#ccd1d9"/></g><g><path d="m11.18 9h-.01-.17c-2.21 0-4 1.79-4 4v2h-1c-.79 0-1.5.3-2.03.8l-.81-4.81c-.11-.66-.16-1.32-.16-1.99 0-1.66.67-3.16 1.76-4.24 1.08-1.09 2.58-1.76 4.24-1.76 1.28-1.28 3.02-2 4.83-2h8.07c5.03 0 9.1 4.07 9.1 9.1 0 .6-.06 1.2-.18 1.78l-.62 3.12-.16.8c-.53-.5-1.25-.8-2.04-.8h-1c0-2.21-1.79-4-4-4h-9c-.83 0-1.58-.34-2.12-.88-.31-.31-.56-.69-.7-1.12z" fill="#656d78"/></g><g><path d="m19 57v4h-6v-2h-4v2h-6v-4h2v-4h4 4 4v4z" fill="#b4dd7f"/></g><g><path d="m41 49v4h-24-4v-4z" fill="#b4dd7f"/></g><g><path d="m9 49h-4v4h4 4v-4z" fill="#a0d468"/></g><g><path d="m5 49v4h-2c-1.1 0-2-.9-2-2 0-.55.22-1.05.59-1.41.36-.37.86-.59 1.41-.59z" fill="#b4dd7f"/></g><g><path d="m55 45c3.31 0 6 2.69 6 6s-2.69 6-6 6h-2l-.29.58c-.53 1.05-1.32 1.9-2.28 2.5-.96.59-2.08.92-3.25.92-3.41 0-6.18-2.77-6.18-6.18v-1.82-4-1.82c0-1.7.69-3.25 1.81-4.37s2.67-1.81 4.37-1.81c2.34 0 4.48 1.32 5.53 3.42l.29.58zm2 6c0-1.1-.9-2-2-2s-2 .9-2 2 .9 2 2 2 2-.9 2-2zm-8 4v-8c0-.55-.22-1.05-.59-1.41-.36-.37-.86-.59-1.41-.59-1.1 0-2 .9-2 2v8c0 1.1.9 2 2 2s2-.9 2-2z" fill="#a0d468"/></g><g><path d="m5 20.82c.31.12.65.18 1 .18h1c0 1.36.34 2.64.94 3.76-.6 1.29-.94 2.73-.94 4.24 0 .97.14 1.91.4 2.8.95 3.25 3.5 5.82 6.74 6.78.9.27 1.87.42 2.86.42s1.96-.15 2.86-.42c3.24-.96 5.79-3.53 6.74-6.78.26-.89.4-1.83.4-2.8 0-1.51-.34-2.95-.94-4.24.6-1.12.94-2.4.94-3.76h1c.35 0 .69-.06 1-.18v.01.05c0 2.42 1.65 4.53 4 5.12v3 3l-.15.02c-1.31.22-2.42 1.1-2.93 2.33-.2.47-.29.98-.29 1.48 0 .79.24 1.58.72 2.24l.09.12-4.25 4.24-.12-.08c-1.08-.78-2.49-.94-3.72-.43s-2.11 1.62-2.33 2.93l-.02.15h-6l-.02-.15c-.22-1.31-1.1-2.42-2.33-2.93-.47-.2-.98-.29-1.48-.29-.79 0-1.58.24-2.24.72l-.12.08-4.25-4.24.09-.12c.78-1.08.94-2.49.43-3.72s-1.62-2.11-2.93-2.33l-.15-.02v-6c1.18-.3 2.18-.97 2.88-1.87.71-.91 1.12-2.04 1.12-3.25v-.05z" fill="#fcd770"/></g><g><path d="m30.2 15h18.8v-4l12 11-12 11v-4h-16v-3c-2.35-.59-4-2.7-4-5.12v-.05-.01c.43-.14.81-.39 1.12-.7.54-.54.88-1.29.88-2.12 0-.87-.37-1.65-.96-2.2z" fill="#ff826e"/></g><g><path d="m30.04 15.8c.59.55.96 1.33.96 2.2 0 .83-.34 1.58-.88 2.12-.31.31-.69.56-1.12.7-.31.12-.65.18-1 .18h-1v-6h1c.79 0 1.51.3 2.04.8z" fill="#f0d0b4"/></g><g><path d="m27 15v6c0 1.36-.34 2.64-.94 3.76-.8 1.5-2.06 2.71-3.59 3.45-1.05.51-2.23.79-3.47.79h-2-2c-1.2 0-2.34-.27-3.36-.74-1.58-.73-2.88-1.96-3.7-3.5-.6-1.12-.94-2.4-.94-3.76v-6-2c0-2.21 1.79-4 4-4h.17.01c.14.43.39.81.7 1.12.54.54 1.29.88 2.12.88h9c2.21 0 4 1.79 4 4z" fill="#f0d0b4"/></g><g><path d="m6 21c-.35 0-.69-.06-1-.18-.43-.14-.81-.39-1.12-.7-.54-.54-.88-1.29-.88-2.12 0-.87.37-1.66.97-2.2.53-.5 1.24-.8 2.03-.8h1v6z" fill="#f0d0b4"/></g><g><path d="m13 21h8c0 1.1-.45 2.1-1.17 2.83-.73.72-1.73 1.17-2.83 1.17-2.21 0-4-1.79-4-4z" fill="#ff826e"/></g></g><g><path d="m12 21c0 2.757 2.243 5 5 5s5-2.243 5-5v-1h-10zm7.829 1c-.413 1.164-1.525 2-2.829 2s-2.416-.836-2.829-2z"/><path d="m12 17c0-.551.449-1 1-1s1 .449 1 1v1h2v-1c0-1.654-1.346-3-3-3s-3 1.346-3 3v1h2z"/><path d="m21 14c-1.654 0-3 1.346-3 3v1h2v-1c0-.551.449-1 1-1s1 .449 1 1v1h2v-1c0-1.654-1.346-3-3-3z"/><path d="m3.154 34.736c.379.917.262 1.945-.315 2.752l-.58.812 5.441 5.441.812-.58c.807-.576 1.835-.695 2.752-.315.917.379 1.562 1.19 1.725 2.17l.164.984h7.693l.165-.984c.163-.979.808-1.79 1.725-2.169.916-.38 1.945-.261 2.752.315l.812.58 5.441-5.441-.58-.812c-.577-.807-.694-1.836-.315-2.752.379-.917 1.19-1.562 2.17-1.725l.984-.165v-2.847h14v5.273l14.48-13.273-14.48-13.273v5.273h-16.58l.384-1.92c.13-.65.196-1.316.196-1.98 0-5.57-4.53-10.1-10.099-10.1h-8.073c-1.955 0-3.799.711-5.24 2.012-3.669.214-6.588 3.266-6.588 6.988 0 .718.06 1.441.178 2.151l.725 4.349c-.556.687-.903 1.549-.903 2.5 0 1.455.789 2.719 1.954 3.419-.22 1.732-1.466 3.178-3.197 3.611l-.757.189v7.627l.984.165c.979.163 1.79.808 2.17 1.725zm46.846-18.736v-2.727l9.52 8.727-9.52 8.727v-2.727h-16v-2.781l-.757-.189c-1.731-.433-2.977-1.879-3.197-3.611 1.165-.7 1.954-1.964 1.954-3.419 0-.732-.212-1.409-.556-2zm-46 2c0-1.103.897-2 2-2v4c-1.103 0-2-.897-2-2zm22 3c0 3.86-3.14 7-7 7h-4c-3.86 0-7-3.14-7-7v-8c0-1.503 1.112-2.752 2.556-2.967.697 1.176 1.98 1.967 3.444 1.967h9c1.654 0 3 1.346 3 3zm-8.535 11h-.93l-.449-.673.914-.913.913.913zm-4.028-.851-.462-1.387c.528.122 1.073.194 1.631.218zm5.957-1.169c.558-.024 1.104-.096 1.631-.218l-.462 1.387zm-9.695-1.723c-.594.405-1.147.866-1.668 1.363-.014-.206-.031-.411-.031-.62 0-.707.086-1.399.245-2.073.434.495.922.94 1.454 1.33zm1.198 1.597 1.666 4.997 2.081-2.081.252.378-1.383 4.149c-2.318-.978-4.135-2.904-4.985-5.286.684-.827 1.479-1.56 2.369-2.157zm5.824 4.146h.558l1.285 3.855c-.509.089-1.03.145-1.564.145s-1.055-.056-1.564-.145zm3.765 3.297-1.383-4.149.252-.378 2.081 2.081 1.667-5c.89.596 1.684 1.333 2.367 2.159-.848 2.382-2.665 4.308-4.984 5.287zm5.514-8.297c0 .209-.017.413-.031.619-.52-.496-1.068-.962-1.661-1.367.53-.389 1.015-.832 1.448-1.325.158.673.244 1.365.244 2.073zm2-13c1.103 0 2 .897 2 2s-.897 2-2 2zm-19-12h.414l.293-.293c1.101-1.101 2.564-1.707 4.121-1.707h8.073c4.466 0 8.099 3.633 8.099 8.099 0 .533-.053 1.067-.157 1.588l-.511 2.558c-.419-.149-.863-.245-1.332-.245h-.101c-.465-2.279-2.484-4-4.899-4h-9c-1.103 0-2-.897-2-2s.897-2 2-2v-2c-2.206 0-4 1.794-4 4 0 .034 0 .067.001.1-2.28.464-4.001 2.485-4.001 4.9v1c-.451 0-.877.092-1.281.23l-.568-3.408c-.1-.601-.151-1.214-.151-1.822 0-2.757 2.243-5 5-5zm-7 22.729c2.034-.79 3.492-2.584 3.885-4.741.039.002.076.012.115.012h.059c.11.989.386 1.927.791 2.793-.554 1.334-.85 2.744-.85 4.207 0 6.065 4.935 11 11 11s11-4.935 11-11c0-1.463-.296-2.873-.85-4.207.405-.867.681-1.804.791-2.793h.059c.037 0 .071-.01.108-.011.384 2.143 1.848 3.947 3.892 4.74v4.475c-1.353.431-2.448 1.428-3.001 2.767-.554 1.337-.485 2.817.167 4.077l-3.117 3.117c-1.261-.651-2.739-.72-4.077-.167-1.339.554-2.337 1.649-2.767 3.001h-4.408c-.431-1.353-1.428-2.448-2.767-3.001-1.337-.554-2.815-.485-4.077.167l-3.117-3.117c.651-1.26.721-2.74.167-4.077-.555-1.339-1.651-2.337-3.003-2.767z"/><path d="m47 44c-1.654 0-3 1.346-3 3v8c0 1.654 1.346 3 3 3s3-1.346 3-3v-8c0-1.654-1.346-3-3-3zm1 11c0 .551-.449 1-1 1s-1-.449-1-1v-8c0-.551.449-1 1-1s1 .449 1 1z"/><path d="m55 48c-1.654 0-3 1.346-3 3s1.346 3 3 3 3-1.346 3-3-1.346-3-3-3zm0 4c-.551 0-1-.449-1-1s.449-1 1-1 1 .449 1 1-.449 1-1 1z"/><path d="m55 44h-1.382l-.015-.031c-1.225-2.448-3.686-3.969-6.423-3.969-3.959 0-7.18 3.221-7.18 7.18v.82h-37c-1.654 0-3 1.346-3 3s1.346 3 3 3h1v2h-2v6h8v-2h2v2h8v-6h-2v-2h22v.82c0 3.959 3.221 7.18 7.18 7.18 2.737 0 5.198-1.521 6.422-3.969l1.398-.031c3.86 0 7-3.14 7-7s-3.14-7-7-7zm-45 8v-2h2v2zm-4 0v-2h2v2zm-3 0c-.551 0-1-.449-1-1s.449-1 1-1h1v2zm15 6v2h-4v-2h-6v2h-4v-2h2v-4h10v4zm-4-6v-2h26v2zm41 4h-2.618l-.569 1.136c-.883 1.767-2.658 2.864-4.633 2.864-2.856 0-5.18-2.324-5.18-5.18v-7.64c0-2.856 2.324-5.18 5.18-5.18 1.975 0 3.75 1.097 4.634 2.864l.568 1.136h2.618c2.757 0 5 2.243 5 5s-2.243 5-5 5z"/><path d="m34 10h2v2h-2z"/><path d="m38 10h2v2h-2z"/><path d="m42 10h2v2h-2z"/><path d="m28 44h2v2h-2z"/><path d="m32 44h2v2h-2z"/><path d="m36 44h2v2h-2z"/></g></g></svg>