<?xml version="1.0" encoding="UTF-8" standalone="no"?>
<!-- Generator: Adobe Illustrator 16.0.0, SVG Export Plug-In . SVG Version: 6.00 Build 0)  -->

<svg
   version="1.1"
   id="livetype"
   x="0px"
   y="0px"
   viewBox="0 0 3000 1002.812"
   enable-background="new 0 0 3000 3000"
   xml:space="preserve"
   sodipodi:docname="app-store-coming-soon.svg"
   width="3000"
   height="1002.812"
   inkscape:version="1.1.2 (0a00cf5339, 2022-02-04)"
   xmlns:inkscape="http://www.inkscape.org/namespaces/inkscape"
   xmlns:sodipodi="http://sodipodi.sourceforge.net/DTD/sodipodi-0.dtd"
   xmlns="http://www.w3.org/2000/svg"
   xmlns:svg="http://www.w3.org/2000/svg"
   xmlns:rdf="http://www.w3.org/1999/02/22-rdf-syntax-ns#"
   xmlns:cc="http://creativecommons.org/ns#"
   xmlns:dc="http://purl.org/dc/elements/1.1/"><defs
   id="defs69" /><sodipodi:namedview
   id="namedview67"
   pagecolor="#ffffff"
   bordercolor="#666666"
   borderopacity="1.0"
   inkscape:pageshadow="2"
   inkscape:pageopacity="0.0"
   inkscape:pagecheckerboard="0"
   showgrid="false"
   fit-margin-top="0"
   fit-margin-left="0"
   fit-margin-right="0"
   fit-margin-bottom="0"
   inkscape:zoom="0.24233333"
   inkscape:cx="730.3989"
   inkscape:cy="501.37552"
   inkscape:window-width="1920"
   inkscape:window-height="1060"
   inkscape:window-x="0"
   inkscape:window-y="20"
   inkscape:window-maximized="1"
   inkscape:current-layer="livetype" />
<title
   id="title2">Download_on_the_App_Store_Badge_US-UK_RGB_blk_4SVG_092917</title>
<g
   id="g64"
   transform="translate(0,-998.596)">
	<g
   id="g33">
		<g
   id="g8">
			<path
   fill="#a6a6a6"
   d="M 2761.099,998.599 H 239.036 c -9.193,0 -18.276,0 -27.445,0.05 -7.675,0.05 -15.289,0.195 -23.038,0.318 -16.834,0.198 -33.629,1.679 -50.238,4.431 -16.585,2.811 -32.652,8.109 -47.655,15.719 -14.985,7.673 -28.677,17.643 -40.58,29.549 -11.965,11.873 -21.939,25.596 -29.539,40.642 -7.62,15.016 -12.903,31.106 -15.668,47.716 -2.792,16.59 -4.293,33.37 -4.493,50.19 -0.232,7.687 -0.257,15.399 -0.38,23.087 v 579.479 c 0.123,7.784 0.147,15.325 0.38,23.112 0.199,16.82 1.701,33.6 4.493,50.188 2.757,16.62 8.042,32.72 15.668,47.741 7.596,14.997 17.571,28.665 29.539,40.471 11.857,11.959 25.559,21.937 40.58,29.551 15.003,7.629 31.068,12.96 47.655,15.813 16.612,2.729 33.405,4.211 50.238,4.433 7.749,0.171 15.363,0.269 23.038,0.269 9.169,0.05 18.252,0.05 27.445,0.05 h 2522.063 c 9.011,0 18.166,0 27.177,-0.05 7.639,0 15.473,-0.098 23.111,-0.269 16.802,-0.21 33.563,-1.691 50.141,-4.432 16.642,-2.875 32.764,-8.204 47.84,-15.814 15.007,-7.619 28.695,-17.596 40.543,-29.551 11.937,-11.853 21.934,-25.51 29.623,-40.471 7.57,-15.032 12.804,-31.131 15.521,-47.741 2.795,-16.59 4.351,-33.366 4.652,-50.188 0.098,-7.787 0.098,-15.328 0.098,-23.112 0.195,-9.108 0.195,-18.166 0.195,-27.422 v -524.686 c 0,-9.181 0,-18.289 -0.195,-27.371 0,-7.688 0,-15.4 -0.098,-23.088 -0.302,-16.822 -1.857,-33.599 -4.652,-50.19 -2.725,-16.601 -7.959,-32.689 -15.521,-47.716 -15.475,-30.158 -40.015,-54.706 -70.166,-70.192 -15.076,-7.59 -31.2,-12.888 -47.84,-15.719 -16.574,-2.763 -33.338,-4.244 -50.141,-4.432 -7.639,-0.122 -15.473,-0.269 -23.111,-0.317 -9.011,-0.051 -18.166,-0.051 -27.176,-0.051 z"
   id="path4" />
			<path
   d="m 211.713,1979.469 c -7.638,0 -15.092,-0.098 -22.67,-0.268 -15.7,-0.205 -31.362,-1.571 -46.86,-4.089 -14.451,-2.489 -28.45,-7.119 -41.535,-13.736 -12.965,-6.563 -24.791,-15.168 -35.023,-25.486 -10.38,-10.196 -19.022,-22.023 -25.584,-35.011 -6.634,-13.071 -11.225,-27.083 -13.613,-41.546 -2.579,-15.541 -3.975,-31.255 -4.174,-47.007 -0.159,-5.287 -0.367,-22.892 -0.367,-22.892 V 1210.3 c 0,0 0.222,-17.334 0.368,-22.427 0.191,-15.727 1.578,-31.417 4.15,-46.933 2.393,-14.503 6.987,-28.555 13.625,-41.67 6.538,-12.979 15.132,-24.813 25.45,-35.047 10.307,-10.33 22.169,-18.979 35.157,-25.633 13.056,-6.597 27.028,-11.193 41.449,-13.637 15.548,-2.543 31.266,-3.918 47.02,-4.113 l 22.621,-0.307 h 2576.427 l 22.892,0.319 c 15.61,0.185 31.185,1.548 46.59,4.075 14.567,2.475 28.686,7.104 41.89,13.735 26.019,13.408 47.189,34.622 60.545,60.668 6.531,13.024 11.055,26.961 13.418,41.339 2.602,15.644 4.058,31.457 4.356,47.313 0.073,7.1 0.073,14.727 0.073,22.316 0.197,9.401 0.197,18.35 0.197,27.371 v 524.686 c 0,9.108 0,17.995 -0.197,26.955 0,8.153 0,15.621 -0.098,23.308 -0.293,15.573 -1.725,31.104 -4.285,46.468 -2.339,14.567 -6.905,28.688 -13.537,41.867 -6.608,12.847 -15.201,24.57 -25.462,34.74 -10.241,10.373 -22.088,19.029 -35.083,25.634 -13.168,6.669 -27.266,11.315 -41.817,13.784 -15.496,2.53 -31.16,3.897 -46.861,4.089 -7.343,0.17 -15.032,0.268 -22.498,0.268 l -27.176,0.051 z"
   id="path6" />
		</g>
		<g
   id="_Group_">
			<g
   id="_Group_2">
				<g
   id="_Group_3">
					<path
   id="_Path_"
   fill="#ffffff"
   d="m 620.96,1507.54 c 0.548,-42.531 22.846,-81.816 59.08,-104.093 -22.963,-32.795 -60.045,-52.842 -100.06,-54.094 -42.099,-4.419 -82.912,25.191 -104.364,25.191 -21.868,0 -54.898,-24.753 -90.466,-24.021 -46.798,1.512 -89.369,27.474 -112.137,68.388 -48.486,83.945 -12.32,207.317 34.125,275.173 23.238,33.227 50.396,70.342 85.932,69.025 34.773,-1.442 47.761,-22.174 89.736,-22.174 41.585,0 53.771,22.174 90.027,21.337 37.313,-0.605 60.823,-33.374 83.245,-66.916 16.696,-23.675 29.544,-49.841 38.067,-77.529 -44.317,-18.743 -73.133,-62.169 -73.185,-110.287 z" />
					<path
   id="_Path_2"
   fill="#ffffff"
   d="m 552.478,1304.728 c 20.346,-24.424 30.369,-55.816 27.941,-87.511 -31.083,3.265 -59.794,18.12 -80.414,41.606 -20.361,23.173 -30.677,53.489 -28.674,84.271 31.5,0.325 61.408,-13.816 81.147,-38.366 z" />
				</g>
			</g>
			<g
   id="g30">
				<path
   fill="#ffffff"
   d="M 1060.525,1678.994 H 941.858 l -28.498,84.146 h -50.263 l 112.4,-311.321 h 52.221 l 112.399,311.321 h -51.12 z m -106.377,-38.829 h 94.063 l -46.37,-136.564 h -1.298 z"
   id="path14" />
				<path
   fill="#ffffff"
   d="m 1382.863,1649.664 c 0,70.534 -37.752,115.852 -94.723,115.852 -29.448,1.541 -57.187,-13.884 -71.416,-39.711 h -1.078 v 112.424 h -46.59 v -302.065 h 45.098 v 37.752 h 0.856 c 14.862,-25.666 42.63,-41.083 72.272,-40.127 57.608,-10e-4 95.581,45.536 95.581,115.875 z m -47.887,0 c 0,-45.953 -23.748,-76.165 -59.982,-76.165 -35.598,0 -59.542,30.848 -59.542,76.165 0,45.733 23.944,76.361 59.542,76.361 36.234,0 59.982,-29.991 59.982,-76.361 z"
   id="path16" />
				<path
   fill="#ffffff"
   d="m 1632.684,1649.664 c 0,70.534 -37.752,115.852 -94.723,115.852 -29.448,1.541 -57.187,-13.884 -71.416,-39.711 h -1.078 v 112.424 h -46.59 v -302.065 h 45.097 v 37.752 h 0.856 c 14.862,-25.666 42.631,-41.083 72.273,-40.127 57.608,-10e-4 95.581,45.536 95.581,115.875 z m -47.888,0 c 0,-45.953 -23.748,-76.165 -59.982,-76.165 -35.598,0 -59.542,30.848 -59.542,76.165 0,45.733 23.944,76.361 59.542,76.361 36.234,0 59.982,-29.991 59.982,-76.361 z"
   id="path18" />
				<path
   fill="#ffffff"
   d="m 1797.795,1676.399 c 3.452,30.872 33.443,51.143 74.427,51.143 39.271,0 67.523,-20.271 67.523,-48.108 0,-24.164 -17.04,-38.633 -57.388,-48.549 l -40.347,-9.72 c -57.167,-13.808 -83.706,-40.543 -83.706,-83.927 0,-53.715 46.811,-90.609 113.28,-90.609 65.784,0 110.882,36.895 112.399,90.609 h -47.031 c -2.815,-31.068 -28.498,-49.821 -66.029,-49.821 -37.532,0 -63.214,18.974 -63.214,46.59 0,22.01 16.403,34.961 56.53,44.876 l 34.3,8.422 c 63.875,15.106 90.414,40.765 90.414,86.301 0,58.244 -46.395,94.724 -120.185,94.724 -69.041,0 -115.656,-35.622 -118.668,-91.933 z"
   id="path20" />
				<path
   fill="#ffffff"
   d="m 2089.505,1482.448 v 53.715 h 43.163 v 36.895 h -43.163 v 125.131 c 0,19.439 8.642,28.498 27.616,28.498 5.124,-0.09 10.24,-0.449 15.326,-1.078 v 36.675 c -8.531,1.594 -17.201,2.315 -25.878,2.154 -45.954,0 -63.876,-17.26 -63.876,-61.28 v -130.1 h -33.002 v -36.895 h 33.002 v -53.715 z"
   id="path22" />
				<path
   fill="#ffffff"
   d="m 2157.665,1649.664 c 0,-71.416 42.062,-116.292 107.65,-116.292 65.81,0 107.675,44.875 107.675,116.292 0,71.611 -41.645,116.292 -107.675,116.292 -66.006,0 -107.65,-44.681 -107.65,-116.292 z m 167.853,0 c 0,-48.989 -22.45,-77.903 -60.202,-77.903 -37.752,0 -60.179,29.134 -60.179,77.903 0,49.186 22.427,77.879 60.179,77.879 37.752,0 60.201,-28.693 60.202,-77.879 z"
   id="path24" />
				<path
   fill="#ffffff"
   d="m 2411.402,1536.163 h 44.436 v 38.633 h 1.078 c 6.197,-24.87 28.984,-41.986 54.596,-41.009 5.369,-0.019 10.724,0.564 15.963,1.739 v 43.578 c -6.778,-2.071 -13.849,-3.021 -20.934,-2.815 -25.907,-1.051 -47.761,19.099 -48.813,45.006 -0.098,2.408 -0.01,4.821 0.264,7.216 v 134.63 h -46.591 z"
   id="path26" />
				<path
   fill="#ffffff"
   d="m 2742.284,1696.475 c -6.268,41.204 -46.395,69.481 -97.734,69.481 -66.029,0 -107.013,-44.24 -107.013,-115.215 0,-71.195 41.203,-117.369 105.055,-117.369 62.798,0 102.288,43.138 102.288,111.958 v 15.963 h -160.313 v 2.815 c -2.88,32.521 21.148,61.221 53.67,64.101 2.457,0.218 4.925,0.281 7.39,0.19 22.609,2.119 43.926,-10.864 52.418,-31.925 h 44.239 z m -157.496,-67.744 h 113.477 c 1.676,-30.101 -21.366,-55.859 -51.466,-57.536 -1.401,-0.078 -2.805,-0.102 -4.207,-0.071 -31.734,-0.189 -57.613,25.383 -57.803,57.117 0,0.163 0,0.327 0,0.49 z"
   id="path28" />
			</g>
		</g>
	</g>
	<g
   id="_Group_4">
		<g
   id="g61">
			
			
			
			
			
			
			
			
			
			
			
			
			
		</g>
	</g>
</g>
<metadata
   id="metadata71"><rdf:RDF><cc:Work
       rdf:about=""><dc:title>Download_on_the_App_Store_Badge_US-UK_RGB_blk_4SVG_092917</dc:title></cc:Work></rdf:RDF></metadata><text
   xml:space="preserve"
   style="font-style:normal;font-weight:normal;font-size:192px;line-height:1.25;font-family:sans-serif;fill:#000000;fill-opacity:1;stroke:none"
   x="1046.0166"
   y="312.38776"
   id="text4830"><tspan
     sodipodi:role="line"
     id="tspan4828"
     x="1046.0166"
     y="312.38776"
     style="font-size:192px;fill:#ffffff;fill-opacity:1"
     dx="0">Coming soon to</tspan></text></svg>
