<svg height="512" viewBox="0 0 64 64" width="512" xmlns="http://www.w3.org/2000/svg"><g id="Filled_outline" data-name="Filled outline"><g fill="#195c85"><path d="m46.707 18.707-1.414-1.414 3-3a1 1 0 0 1 .707-.293h8v2h-7.586z"/><path d="m17.293 20.707-4.707-4.707h-5.586v-2h6a1 1 0 0 1 .707.293l5 5z"/><path d="m13 45h-6v-2h5.586l4.707-4.707 1.414 1.414-5 5a1 1 0 0 1 -.707.293z"/><path d="m17.628 29.929-4.82-1.929h-6.808v-2h7a1.012 1.012 0 0 1 .372.071l5 2z"/><path d="m17.628 37.929-4.82-1.929h-6.808v-2h7a1.012 1.012 0 0 1 .372.071l5 2z"/><path d="m46.515 27.857-1.03-1.714 5-3a1 1 0 0 1 .515-.143h7v2h-6.723z"/><path d="m58 36h-7a1 1 0 0 1 -.515-.143l-5-3 1.03-1.714 4.762 2.857h6.723z"/><path d="m58 44h-7a1 1 0 0 1 -.515-.143l-5-3 1.03-1.714 4.762 2.857h6.723z"/></g><rect fill="#767f87" height="58" rx="4" transform="matrix(-1 0 0 -1 64 64)" width="28" x="18" y="3"/><circle cx="32" cy="55" fill="#394d5c" r="2"/><path d="m30 6h8v2h-8z" fill="#394d5c"/><path d="m26 6h2v2h-2z" fill="#394d5c"/><path d="m18 11h28v38h-28z" fill="#f4f4e6"/><path d="m23 31h2v12h-2z" fill="#7fcac9"/><path d="m39 31h2v13h-2z" fill="#7fcac9"/><path d="m31 35h2v10h-2z" fill="#7fcac9"/><path d="m35 34h2v8h-2z" fill="#7fcac9"/><path d="m27 34h2v7h-2z" fill="#7fcac9"/><path d="m27 43h2v2h-2z" fill="#7fcac9"/><path d="m35 44h2v2h-2z" fill="#7fcac9"/><circle cx="5" cy="15" fill="#32b1cc" r="2"/><circle cx="5" cy="27" fill="#32b1cc" r="2"/><circle cx="5" cy="35" fill="#32b1cc" r="2"/><circle cx="5" cy="44" fill="#32b1cc" r="2"/><circle cx="59" cy="15" fill="#32b1cc" r="2"/><circle cx="59" cy="24" fill="#32b1cc" r="2"/><circle cx="59" cy="35" fill="#32b1cc" r="2"/><circle cx="59" cy="43" fill="#32b1cc" r="2"/><path d="m9 4h2v2h-2z" fill="#d9176c"/><path d="m9 8h2v2h-2z" fill="#d9176c"/><path d="m7 6h2v2h-2z" fill="#d9176c"/><path d="m11 6h2v2h-2z" fill="#d9176c"/><path d="m53 49h2v2h-2z" fill="#d9176c"/><path d="m53 53h2v2h-2z" fill="#d9176c"/><path d="m51 51h2v2h-2z" fill="#d9176c"/><path d="m55 51h2v2h-2z" fill="#d9176c"/><circle cx="32" cy="25" fill="#ffd782" r="10"/><path d="m33 18h2v3h-2z" fill="#e97424"/><path d="m29 18h2v3h-2z" fill="#e97424"/><path d="m29 29h2v3h-2z" fill="#e97424"/><path d="m33 29h2v3h-2z" fill="#e97424"/><path d="m35 26h-5a1 1 0 0 1 -1-1v-4a1 1 0 0 1 1-1h5a3 3 0 0 1 0 6zm-4-2h4a1 1 0 0 0 0-2h-4z" fill="#e97424"/><path d="m35 30h-5a1 1 0 0 1 -1-1v-4a1 1 0 0 1 1-1h5a3 3 0 0 1 0 6zm-4-2h4a1 1 0 0 0 0-2h-4z" fill="#e97424"/><path d="m27 20h3v2h-3z" fill="#e97424"/><path d="m27 28h4v2h-4z" fill="#e97424"/><path d="m32 52a3 3 0 1 0 3 3 3 3 0 0 0 -3-3zm0 4a1 1 0 1 1 1-1 1 1 0 0 1 -1 1z"/><path d="m30 6h8v2h-8z"/><path d="m26 6h2v2h-2z"/><path d="m32 14a10.985 10.985 0 0 0 -9 17.305v11.695h2v-9.521a11.013 11.013 0 0 0 2 1.307v6.214h2v-5.426a10.9 10.9 0 0 0 2 .375v9.051h2v-9.051a10.9 10.9 0 0 0 2-.375v6.426h2v-7.214a11.013 11.013 0 0 0 2-1.307v10.521h2v-12.695a10.985 10.985 0 0 0 -9-17.305zm0 20a9 9 0 1 1 9-9 9.011 9.011 0 0 1 -9 9z"/><path d="m35 20v-2h-2v2h-2v-2h-2v2h-2v2h2v6h-2v2h2v2h2v-2h2v2h2v-2a2.987 2.987 0 0 0 2.22-5 2.987 2.987 0 0 0 -2.22-5zm1 3a1 1 0 0 1 -1 1h-4v-2h4a1 1 0 0 1 1 1zm-1 5h-4v-2h4a1 1 0 0 1 0 2z"/><path d="m27 43h2v2h-2z"/><path d="m35 44h2v2h-2z"/><path d="m49.414 16h6.77a3 3 0 1 0 0-2h-7.184a1 1 0 0 0 -.707.293l-1.293 1.293v-8.586a5.006 5.006 0 0 0 -5-5h-20a5.006 5.006 0 0 0 -5 5v10.586l-3.293-3.293a1 1 0 0 0 -.707-.293h-5.184a3 3 0 1 0 0 2h4.77l4.414 4.414v7.109l-3.628-1.452a1.012 1.012 0 0 0 -.372-.071h-5.184a3 3 0 1 0 0 2h4.992l4.192 1.677v5.846l-3.628-1.452a1.012 1.012 0 0 0 -.372-.071h-5.184a3 3 0 1 0 0 2h4.992l4.192 1.677v.909l-4.414 4.414h-4.77a3 3 0 1 0 0 2h5.184a1 1 0 0 0 .707-.293l3.293-3.293v15.586a5.006 5.006 0 0 0 5 5h20a5.006 5.006 0 0 0 5-5v-15.234l3.485 2.091a1 1 0 0 0 .515.143h5.184a3 3 0 1 0 0-2h-4.907l-4.277-2.566v-5.668l3.485 2.091a1 1 0 0 0 .515.143h5.184a3 3 0 1 0 0-2h-4.907l-4.277-2.566v-3.868l4.277-2.566h4.907a3 3 0 1 0 0-2h-5.184a1 1 0 0 0 -.515.143l-3.485 2.091v-6.82zm9.586-2a1 1 0 1 1 -1 1 1 1 0 0 1 1-1zm-54 2a1 1 0 1 1 1-1 1 1 0 0 1 -1 1zm0 12a1 1 0 1 1 1-1 1 1 0 0 1 -1 1zm0 8a1 1 0 1 1 1-1 1 1 0 0 1 -1 1zm0 9a1 1 0 1 1 1-1 1 1 0 0 1 -1 1zm54-3a1 1 0 1 1 -1 1 1 1 0 0 1 1-1zm0-8a1 1 0 1 1 -1 1 1 1 0 0 1 1-1zm0-11a1 1 0 1 1 -1 1 1 1 0 0 1 1-1zm-40-11h26v36h-26zm3-8h20a3 3 0 0 1 3 3v3h-26v-3a3 3 0 0 1 3-3zm20 56h-20a3 3 0 0 1 -3-3v-7h26v7a3 3 0 0 1 -3 3z"/><path d="m9 4h2v2h-2z"/><path d="m9 8h2v2h-2z"/><path d="m7 6h2v2h-2z"/><path d="m11 6h2v2h-2z"/><path d="m53 49h2v2h-2z"/><path d="m53 53h2v2h-2z"/><path d="m51 51h2v2h-2z"/><path d="m55 51h2v2h-2z"/></g></svg>