<svg height="512" viewBox="0 0 60 60" width="512" xmlns="http://www.w3.org/2000/svg"><g id="Page-1" fill="none" fill-rule="evenodd"><g id="002---Bot-Message" fill-rule="nonzero" transform="translate(-1)"><path id="Shape" d="m48 39c0 15-10.3 20-23 20s-23-5-23-20c0-14 10.3-24 23-24 3.0903976-.0100698 6.1511982.6020903 9 1.8v1.2c0 1.6568542 1.3431458 3 3 3h1c.5522847 0 1 .4477153 1 1v3.23c.0000627.3593049.1928829.6909565.505101.8687761.3122182.1778196.6958342.1744694 1.004899-.0087761l2.93-1.76c3.0318572 4.2853551 4.6282198 9.4210217 4.56 14.67z" fill="#f5f5f5"/><path id="Shape" d="m43.44 24.33-2.146 1.289c2.4703306 4.0225352 3.754925 8.6607321 3.706 13.381 0 14.4-9.5 19.584-21.5 19.973.5.016 1 .027 1.5.027 12.7 0 23-5 23-20 .0682198-5.2489783-1.5281428-10.3846449-4.56-14.67z" fill="#cfd8dc"/><rect id="Rectangle-path" fill="#607d8b" height="22" rx="11" width="38" x="6" y="28"/><path id="Shape" d="m33 28h-3c6.0751322 0 11 4.9248678 11 11s-4.9248678 11-11 11h3c6.0751322-.0000001 10.9999998-4.9248678 10.9999998-11s-4.9248676-10.9999999-10.9999998-11z" fill="#37474f"/><circle id="Oval" cx="14" cy="38" fill="#00bcd4" r="3"/><circle id="Oval" cx="36" cy="38" fill="#00bcd4" r="3"/><circle id="Oval" cx="8" cy="13" fill="#02a9f4" r="2"/><path id="Shape" d="m60 4v14c0 1.6568542-1.3431458 3-3 3h-7.72c-.1824524.0014388-.3614878.0496407-.52.14l-5.32 3.19-2.93 1.76c-.3090648.1832455-.6926808.1865957-1.004899.0087761-.3122181-.1778196-.5050383-.5094712-.505101-.8687761v-3.23c0-.5522847-.4477153-1-1-1h-1c-1.6568542 0-3-1.3431458-3-3v-14c0-1.65685425 1.3431458-3 3-3h20c1.6568542 0 3 1.34314575 3 3z" fill="#ffdf00"/><path id="Shape" d="m57 1h-3c1.6568542 0 3 1.34314575 3 3v14c0 1.6568542-1.3431458 3-3 3h3c1.6568542 0 3-1.3431458 3-3v-14c0-1.65685425-1.3431458-3-3-3z" fill="#fec108"/><g fill="#000"><path id="Shape" d="m17 27c-6.627417 0-12 5.372583-12 12s5.372583 12 12 12h16c6.627417 0 12-5.372583 12-12s-5.372583-12-12-12zm26 12c-.0060624 5.5203344-4.4796656 9.9939376-10 10h-16c-5.5228475 0-10-4.4771525-10-10s4.4771525-10 10-10h16c5.5203344.0060624 9.9939376 4.4796656 10 10z"/><path id="Shape" d="m14 34c-2.209139 0-4 1.790861-4 4s1.790861 4 4 4 4-1.790861 4-4-1.790861-4-4-4zm0 6c-1.1045695 0-2-.8954305-2-2s.8954305-2 2-2 2 .8954305 2 2-.8954305 2-2 2z"/><path id="Shape" d="m36 42c2.209139 0 4-1.790861 4-4s-1.790861-4-4-4-4 1.790861-4 4 1.790861 4 4 4zm0-6c1.1045695 0 2 .8954305 2 2s-.8954305 2-2 2-2-.8954305-2-2 .8954305-2 2-2z"/><path id="Shape" d="m22 25h6c.5522847 0 1-.4477153 1-1s-.4477153-1-1-1h-6c-.5522847 0-1 .4477153-1 1s.4477153 1 1 1z"/><path id="Shape" d="m24 22h2c.5522847 0 1-.4477153 1-1s-.4477153-1-1-1h-2c-.5522847 0-1 .4477153-1 1s.4477153 1 1 1z"/><path id="Shape" d="m57 0h-20c-2.209139 0-4 1.790861-4 4v11.347c-2.5712007-.8985807-5.276313-1.3540539-8-1.347-5.9058605-.0610987-11.6181844 2.1038721-16 6.064v-4.248c1.3775467-.4870363 2.2038721-1.8956662 1.9567957-3.3357331-.2470764-1.4400668-1.4956868-2.49269402-2.9567957-2.49269402s-2.70971927 1.05262722-2.95679568 2.49269402c-.24707641 1.4400669.57924899 2.8486968 1.95679568 3.3357331v6.3c-3.96356752 4.7243441-6.09348037 10.7179189-6 16.884 0 13.738 8.3 21 24 21s24-7.262 24-21c.0508124-5.0845422-1.3914304-10.0722404-4.148-14.345l4.425-2.655h7.723c2.209139 0 4-1.790861 4-4v-14c0-2.209139-1.790861-4-4-4zm-49 12c.55228475 0 1 .4477153 1 1s-.44771525 1-1 1-1-.4477153-1-1 .44771525-1 1-1zm39 27c0 12.607-7.4 19-22 19s-22-6.393-22-19c0-13.112 9.458-23 22-23 2.7368223-.0026943 5.4500512.5060361 8 1.5v.5c0 2.209139 1.790861 4 4 4h1v3.234c.0049282 1.1025217.8974783 1.9950718 2 2 .3627718-.0009.7184675-.1004533 1.029-.288l2.108-1.265c2.5710617 3.9624335 3.9149107 8.595808 3.863 13.319zm12-21c0 1.1045695-.8954305 2-2 2h-7.723c-.3624418.0003443-.7180261.0988297-1.029.285l-8.248 4.949v-3.234c0-1.1045695-.8954305-2-2-2h-1c-1.1045695 0-2-.8954305-2-2v-14c0-1.1045695.8954305-2 2-2h20c1.1045695 0 2 .8954305 2 2z"/><path id="Shape" d="m27.3 43.282c-.6559217.5070896-1.4720819.7618735-2.3.718-.8276815.0432642-1.643525-.2110662-2.3-.717-.3985064-.3506401-1.0015362-.3288293-1.37367.049684-.3721338.3785132-.3836925.9818266-.02633 1.374316 1.023374.8869696 2.346923 1.3494963 3.7 1.293 1.35546.0583036 2.6818413-.4043376 3.707-1.293.3854708-.3870661.3854708-1.0129339 0-1.4-.3841726-.3895471-1.0092311-.4006534-1.407-.025z"/><path id="Shape" d="m55 6h-16c-.5522847 0-1 .44771525-1 1s.4477153 1 1 1h16c.5522847 0 1-.44771525 1-1s-.4477153-1-1-1z"/><path id="Shape" d="m39 12h5c.5522847 0 1-.4477153 1-1s-.4477153-1-1-1h-5c-.5522847 0-1 .4477153-1 1s.4477153 1 1 1z"/><path id="Shape" d="m52 14h-13c-.5522847 0-1 .4477153-1 1s.4477153 1 1 1h13c.5522847 0 1-.4477153 1-1s-.4477153-1-1-1z"/></g></g></g></svg>