<?xml version="1.0" encoding="UTF-8" standalone="no"?>
<!-- Created with Inkscape (http://www.inkscape.org/) -->

<svg
   width="512mm"
   height="256mm"
   viewBox="0 0 512 256"
   version="1.1"
   id="svg5"
   inkscape:version="1.3-dev (77bc73e, 2022-05-18)"
   sodipodi:docname="damus-tshirt.svg"
   xml:space="preserve"
   xmlns:inkscape="http://www.inkscape.org/namespaces/inkscape"
   xmlns:sodipodi="http://sodipodi.sourceforge.net/DTD/sodipodi-0.dtd"
   xmlns:xlink="http://www.w3.org/1999/xlink"
   xmlns="http://www.w3.org/2000/svg"
   xmlns:svg="http://www.w3.org/2000/svg"><sodipodi:namedview
     id="namedview7"
     pagecolor="#ffffff"
     bordercolor="#000000"
     borderopacity="0.25"
     inkscape:pageshadow="2"
     inkscape:pageopacity="0.0"
     inkscape:pagecheckerboard="0"
     inkscape:blackoutopacity="0.0"
     inkscape:document-units="mm"
     showgrid="false"
     inkscape:zoom="0.41986485"
     inkscape:cx="1001.5128"
     inkscape:cy="550.17704"
     inkscape:window-width="1440"
     inkscape:window-height="872"
     inkscape:window-x="0"
     inkscape:window-y="0"
     inkscape:window-maximized="1"
     inkscape:current-layer="svg5"
     inkscape:showpageshadow="2"
     inkscape:deskcolor="#d1d1d1" /><defs
     id="defs2"><linearGradient
       inkscape:collect="always"
       id="linearGradient39361"><stop
         style="stop-color:#0de8ff;stop-opacity:0.78082192;"
         offset="0"
         id="stop39357" /><stop
         style="stop-color:#d600fc;stop-opacity:0.95433789;"
         offset="1"
         id="stop39359" /></linearGradient><inkscape:path-effect
       effect="bspline"
       id="path-effect255"
       is_visible="true"
       lpeversion="1"
       weight="33.333333"
       steps="2"
       helper_size="0"
       apply_no_weight="true"
       apply_with_weight="true"
       only_selected="false" /><linearGradient
       inkscape:collect="always"
       xlink:href="#linearGradient39361"
       id="linearGradient39367"
       x1="62.104473"
       y1="128.78963"
       x2="208.25758"
       y2="128.78963"
       gradientUnits="userSpaceOnUse" /></defs><g
     inkscape:label="Background"
     inkscape:groupmode="layer"
     id="layer1"
     sodipodi:insensitive="true"><rect
       style="fill:#473761;fill-opacity:1;stroke-width:0.374351"
       id="rect61"
       width="512.47638"
       height="256"
       x="-5.3875166e-08"
       y="-1.0775033e-07"
       ry="0"
       inkscape:label="Gradient"
       sodipodi:insensitive="true" /></g><g
     id="g407"
     inkscape:label="Logo"
     transform="translate(-10.08261,-1.8904893)"
     style="display:none"><g
       id="layer2"
       inkscape:label="LogoStroke"
       style="display:inline"><path
         style="fill:url(#linearGradient39367);fill-opacity:1;stroke:#ffffff;stroke-width:10;stroke-miterlimit:4;stroke-dasharray:none;stroke-opacity:1"
         d="M 101.1429,213.87373 C 67.104473,239.1681 67.104473,42.67112 67.104473,42.67112 135.18122,57.58146 203.25844,72.491904 203.25758,105.24181 c -8.6e-4,32.74991 -68.07625,83.33755 -102.11468,108.63192 z"
         id="path253" /></g><g
       inkscape:groupmode="layer"
       id="layer3"
       inkscape:label="Poly"><path
         style="fill:#ffffff;fill-opacity:0.325424;stroke:#ffffff;stroke-width:2;stroke-miterlimit:4;stroke-dasharray:none;stroke-opacity:1"
         d="M 67.32839,76.766948 112.00424,99.41949 100.04873,52.226693 Z"
         id="path4648" /><path
         style="fill:#ffffff;fill-opacity:0.274576;stroke:#ffffff;stroke-width:2;stroke-miterlimit:4;stroke-dasharray:none;stroke-opacity:1"
         d="M 111.45696,98.998695 107.00758,142.60261 70.077729,105.67276 Z"
         id="path9299" /><path
         style="fill:#ffffff;fill-opacity:0.379661;stroke:#ffffff;stroke-width:2;stroke-miterlimit:4;stroke-dasharray:none;stroke-opacity:1"
         d="m 111.01202,99.221164 29.14343,-37.15232 25.80641,39.377006 z"
         id="path9301" /><path
         style="fill:#ffffff;fill-opacity:0.447458;stroke:#ffffff;stroke-width:2;stroke-miterlimit:4;stroke-dasharray:none;stroke-opacity:1"
         d="m 111.45696,99.443631 57.17452,55.172309 -2.89209,-53.17009 z"
         id="path9368" /><path
         style="fill:#ffffff;fill-opacity:0.20678;stroke:#ffffff;stroke-width:2;stroke-miterlimit:4;stroke-dasharray:none;stroke-opacity:1"
         d="m 106.78511,142.38015 62.06884,12.68073 -57.17452,-55.617249 z"
         id="path9370" /><path
         style="fill:#ffffff;fill-opacity:0.244068;stroke:#ffffff;stroke-width:2;stroke-miterlimit:4;stroke-dasharray:none;stroke-opacity:1"
         d="m 106.78511,142.38015 -28.47603,32.9254 62.51378,7.56395 z"
         id="path9372" /><path
         style="fill:#ffffff;fill-opacity:0.216949;stroke:#ffffff;stroke-width:2;stroke-miterlimit:4;stroke-dasharray:none;stroke-opacity:1"
         d="M 165.96186,101.44585 195.7727,125.02756 182.64703,78.754017 Z"
         id="path9374" /></g><g
       inkscape:groupmode="layer"
       id="layer4"
       inkscape:label="Vertices"><circle
         style="fill:#ffffff;fill-opacity:1;stroke:none;stroke-width:4;stroke-miterlimit:4;stroke-dasharray:none;stroke-opacity:1"
         id="path27764"
         cx="106.86934"
         cy="142.38014"
         r="2.0022209" /><circle
         style="fill:#ffffff;fill-opacity:1;stroke:none;stroke-width:4;stroke-miterlimit:4;stroke-dasharray:none;stroke-opacity:1"
         id="circle28773"
         cx="111.54119"
         cy="99.221161"
         r="2.0022209" /><circle
         style="fill:#ffffff;fill-opacity:1;stroke:none;stroke-width:4;stroke-miterlimit:4;stroke-dasharray:none;stroke-opacity:1"
         id="circle29091"
         cx="165.90784"
         cy="101.36163"
         r="2.0022209" /></g></g><g
     transform="matrix(0.55082902,0,0,-0.55082902,15.784598,224.31818)"
     id="g10"
     inkscape:label="Bolt"><g
       transform="scale(0.1)"
       id="g12"><path
         id="path14"
         style="fill:#c98f19;fill-opacity:1;fill-rule:nonzero;stroke:none"
         d="m 541.563,1332.3 33.441,159.23 -384.789,-25.47 230.41,-221.09 104.063,6.87 z m 1224.487,897.14 -80.21,-112.73 -117.55,-165.19 -15.05,-21.14 -431.91,-606.91 -653.549,-918.497 256.266,-245.903 644.653,905.95 653.63,918.52 z m -216.97,117.99 154.51,736.69 -243.59,233.77 -174.32,-830.94 -33.38,-159.16 196.62,13.01 100.16,6.63" /><path
         id="path16"
         style="fill:#fadf05;fill-opacity:1;fill-rule:nonzero;stroke:none"
         d="m 1652.26,2249.61 -56.79,-3.77 -80.65,-5.33 -59,-3.89 -333.94,-22.12 61.62,293.88 62.23,296.67 80.06,381.7 L 790.969,2435.2 175,1569.7 l 441.332,29.21 89.137,5.89 -61.723,-293.96 -9.867,-47.1 -15.106,-72.09 -117.273,-559.177 163.074,229.175 371.696,522.342 431.89,606.93 15.05,21.13 169.07,237.56 h -0.02" /><path
         id="path18"
         style="fill:#ffffff;fill-opacity:1;fill-rule:nonzero;stroke:none"
         d="m 1778.08,2362.58 -120.82,-8.01 160.41,764.79 L 1420.95,3500 705.914,2495.75 0,1503.89 381.547,1137.73 502.449,1145.74 342.156,380.828 739.016,0 2159.68,1996.46 Z m -74.49,721.54 -154.51,-736.69 -100.16,-6.63 -196.62,-13.01 33.38,159.16 174.32,830.94 z M 420.625,1244.97 l -230.41,221.09 384.789,25.47 -33.441,-159.23 -16.875,-80.46 z m 198.148,-53.32 15.106,72.09 9.867,47.1 61.723,293.96 -89.137,-5.89 L 175,1569.7 l 615.969,865.5 534.821,751.55 -80.06,-381.7 -62.23,-296.67 -61.62,-293.88 333.94,22.12 59,3.89 80.65,5.33 56.79,3.77 h 0.02 L 1483.21,2012.05 1468.16,1990.92 1036.27,1383.99 664.574,861.648 501.5,632.473 Z M 1368.7,1065.02 724.047,159.07 467.781,404.973 l 653.549,918.497 431.91,606.91 15.05,21.14 117.55,165.19 80.21,112.73 256.28,-245.9 -653.63,-918.52" /></g></g><g
     aria-label="damus.io"
     id="text1"
     style="font-size:81.1389px;letter-spacing:-3.96875px;fill:#ffffff;stroke-width:4"
     inkscape:label="damus.io"><path
       d="m 195.6465,162.58206 h -7.44829 v -4.63537 q -3.20911,2.7733 -6.69555,4.31842 -3.48643,1.54513 -7.56715,1.54513 -7.92372,0 -12.59872,-6.10127 -4.63537,-6.10126 -4.63537,-16.91714 0,-5.62584 1.58474,-10.02351 1.62436,-4.39766 4.35805,-7.48791 2.69406,-3.01102 6.25974,-4.59576 3.60529,-1.58475 7.44829,-1.58475 3.48644,0 6.18051,0.75276 2.69406,0.71313 5.66546,2.25826 v -19.17541 h 7.44829 z m -7.44829,-10.89511 v -25.39553 q -3.01102,-1.34703 -5.38813,-1.86207 -2.37712,-0.51505 -5.19004,-0.51505 -6.25974,0 -9.74618,4.35805 -3.48643,4.35805 -3.48643,12.36101 0,7.8841 2.69406,12.00443 2.69407,4.08072 8.63686,4.08072 3.16948,0 6.41821,-1.38665 3.24873,-1.42627 6.06165,-3.64491 z"
       id="path1" /><path
       d="m 240.72558,162.58206 h -7.40867 v -4.71461 q -0.99047,0.67351 -2.69407,1.90169 -1.66398,1.18856 -3.24873,1.90169 -1.86207,0.91123 -4.2788,1.50551 -2.41674,0.6339 -5.66546,0.6339 -5.98241,0 -10.14237,-3.96186 -4.15995,-3.96186 -4.15995,-10.10275 0,-5.03156 2.1394,-8.12181 2.17903,-3.12987 6.18051,-4.91271 4.04109,-1.78283 9.70655,-2.41673 5.66546,-0.6339 12.16292,-0.95085 v -1.14894 q 0,-2.53559 -0.91123,-4.19957 -0.87161,-1.66398 -2.53559,-2.61483 -1.58475,-0.91123 -3.80339,-1.22817 -2.21864,-0.31695 -4.63538,-0.31695 -2.93177,0 -6.53707,0.79237 -3.60529,0.75275 -7.44829,2.21864 h -0.39619 v -7.56715 q 2.17902,-0.59428 6.29936,-1.30742 4.12033,-0.71313 8.12181,-0.71313 4.675,0 8.12182,0.79237 3.48643,0.75275 6.02202,2.61483 2.49598,1.82245 3.80339,4.71461 1.30741,2.89216 1.30741,7.17097 z m -7.40867,-10.89511 v -12.32139 q -3.4072,0.19809 -8.04258,0.59428 -4.59576,0.39618 -7.28982,1.14894 -3.20911,0.91123 -5.19004,2.85254 -1.98093,1.90169 -1.98093,5.26927 0,3.80339 2.29788,5.7447 2.29788,1.90169 7.01249,1.90169 3.92224,0 7.17097,-1.5055 3.24872,-1.54513 6.02203,-3.68453 z"
       id="path2" /><path
       d="m 315.6771,162.58206 h -7.4483 v -25.19743 q 0,-2.85254 -0.27733,-5.50699 -0.23771,-2.65444 -1.0697,-4.23919 -0.91123,-1.7036 -2.61483,-2.57521 -1.7036,-0.87161 -4.91271,-0.87161 -3.12987,0 -6.25974,1.58475 -3.12986,1.54512 -6.25973,3.96186 0.11885,0.91123 0.19809,2.1394 0.0792,1.18856 0.0792,2.37712 v 28.3273 h -7.4483 v -25.19743 q 0,-2.93178 -0.27733,-5.5466 -0.23771,-2.65445 -1.0697,-4.2392 -0.91123,-1.7036 -2.61483,-2.53559 -1.7036,-0.87161 -4.91271,-0.87161 -3.05063,0 -6.14088,1.50551 -3.05064,1.50551 -6.10127,3.84301 v 33.04191 h -7.4483 v -44.25398 h 7.4483 v 4.91271 q 3.48644,-2.89216 6.93326,-4.51652 3.48643,-1.62437 7.40868,-1.62437 4.51652,0 7.64639,1.9017 3.16949,1.90169 4.71461,5.26927 4.51652,-3.80338 8.24067,-5.46737 3.72415,-1.7036 7.96334,-1.7036 7.28982,0 10.73664,4.43729 3.48644,4.39766 3.48644,12.32138 z"
       id="path3" /><path
       d="m 362.73711,162.58206 h -7.4483 v -4.91271 q -3.76377,2.9714 -7.21058,4.55614 -3.44682,1.58475 -7.60678,1.58475 -6.97287,0 -10.85549,-4.23919 -3.88263,-4.27881 -3.88263,-12.51948 v -28.72349 h 7.4483 v 25.19743 q 0,3.36758 0.31695,5.78432 0.31695,2.37712 1.34703,4.08072 1.0697,1.74321 2.7733,2.53559 1.7036,0.79237 4.95233,0.79237 2.89216,0 6.29936,-1.50551 3.44682,-1.50551 6.41821,-3.843 v -33.04192 h 7.4483 z"
       id="path4" /><path
       d="m 405.04288,149.82487 q 0,6.06165 -5.03156,9.94427 -4.99195,3.88262 -13.66842,3.88262 -4.91271,0 -9.03304,-1.14894 -4.08072,-1.18855 -6.85402,-2.5752 v -8.35953 h 0.39619 q 3.52605,2.65445 7.84448,4.23919 4.31843,1.54513 8.28029,1.54513 4.9127,0 7.68601,-1.58475 2.7733,-1.58474 2.7733,-4.99194 0,-2.61483 -1.50551,-3.96186 -1.5055,-1.34704 -5.78431,-2.29788 -1.58475,-0.35657 -4.15996,-0.83199 -2.53559,-0.47543 -4.63537,-1.03009 -5.82394,-1.54512 -8.28029,-4.51652 -2.41674,-3.01101 -2.41674,-7.36906 0,-2.73368 1.10932,-5.15042 1.14894,-2.41673 3.44682,-4.31842 2.21864,-1.86208 5.62584,-2.93178 3.44682,-1.10932 7.68601,-1.10932 3.96186,0 8.00296,0.99046 4.08072,0.95085 6.77478,2.3375 v 7.96334 h -0.39618 q -2.85254,-2.09978 -6.93326,-3.52605 -4.08072,-1.46589 -8.00296,-1.46589 -4.08071,0 -6.89363,1.58474 -2.81293,1.54513 -2.81293,4.63538 0,2.73368 1.7036,4.12033 1.66399,1.38665 5.38814,2.25826 2.06016,0.47543 4.59575,0.95085 2.57521,0.47542 4.27881,0.87161 5.19004,1.18856 8.00296,4.08071 2.81292,2.93178 2.81292,7.76525 z"
       id="path5" /><path
       d="m 423.89445,162.58206 h -9.46884 v -11.2913 h 9.46884 z"
       id="path6" /><path
       d="m 445.28162,110.9194 h -8.39915 v -7.72563 h 8.39915 z m -0.47542,51.66266 h -7.4483 v -44.25398 h 7.4483 z"
       id="path7" /><path
       d="m 493.29248,140.47488 q 0,10.81588 -5.54661,17.07562 -5.5466,6.25974 -14.85697,6.25974 -9.38961,0 -14.93622,-6.25974 -5.50698,-6.25974 -5.50698,-17.07562 0,-10.81588 5.50698,-17.07562 5.54661,-6.29936 14.93622,-6.29936 9.31037,0 14.85697,6.29936 5.54661,6.25974 5.54661,17.07562 z m -7.68601,0 q 0,-8.59724 -3.36758,-12.75719 -3.36758,-4.19957 -9.34999,-4.19957 -6.06165,0 -9.42923,4.19957 -3.32796,4.15995 -3.32796,12.75719 0,8.31991 3.36758,12.63834 3.36758,4.2788 9.38961,4.2788 5.94279,0 9.31037,-4.23919 3.4072,-4.27881 3.4072,-12.67795 z"
       id="path8" /></g></svg>
