<svg id="_x33_0" enable-background="new 0 0 64 64" height="512" viewBox="0 0 64 64" width="512" xmlns="http://www.w3.org/2000/svg"><g><g><g><path d="m40 46c-6.99 0-13.22-3.26-17.25-8.34.79-1.01 1.25-2.28 1.25-3.66h1c.83 0 1.58-.34 2.12-.88s.88-1.29.88-2.12c0-1.1-.58-2.05-1.46-2.58 1.05-1.19 1.85-2.59 2.35-4.1l.11-.32h-2l1.06-1.6c.61-.91.94-1.99.94-3.09 0-.86-.2-1.71-.59-2.49l-.41-.82c-1.96 1.3-4.25 2-6.61 2h-2.56c2.61-9.23 11.1-16 21.17-16 12.15 0 22 9.85 22 22s-9.85 22-22 22z" fill="#69d6f4"/></g><g><path d="m46 56v2c0 .73-.2 1.41-.54 2-.69 1.2-1.98 2-3.46 2-2.21 0-4-1.79-4-4v-3c0-.55.45-1 1-1h6c.55 0 1 .45 1 1z" fill="#dfb28b"/></g><g><circle cx="42" cy="48" fill="#ef7385" r="2"/></g><g><path d="m2 55c0-5.31 3.56-9.97 8.68-11.37l2.32-.63.21.11c1.18.58 2.47.89 3.79.89s2.61-.31 3.79-.89l.21-.11 2.32.63c5.12 1.4 8.68 6.06 8.68 11.37 0 1.38-.56 2.63-1.46 3.54-.91.9-2.16 1.46-3.54 1.46h-1v-2-4-5c0-.55-.45-1-1-1h-16c-.55 0-1 .45-1 1v5 4 2h-1c-1.38 0-2.63-.56-3.54-1.46-.9-.91-1.46-2.16-1.46-3.54z" fill="#fcd770"/></g><g><path d="m26 60v1c0 .55-.45 1-1 1h-16c-.55 0-1-.45-1-1v-1-2h18z" fill="#aab2bd"/></g><g><path d="m26 54v4h-18v-4-5c0-.55.45-1 1-1h16c.55 0 1 .45 1 1z" fill="#ccd1d9"/></g><g><path d="m28.89 24.32c-.5 1.51-1.3 2.91-2.35 4.1-.45-.26-.98-.42-1.54-.42h-1c0-2.21-1.79-4-4-4h-7c-1.74.58-2.93 2.18-3 4h-1c-.93 0-1.76.42-2.31 1.08l-.29-.89c-.27-.79-.4-1.61-.4-2.45 0-2.14.87-4.07 2.27-5.47s3.33-2.27 5.47-2.27h5.09 2.56c2.36 0 4.65-.7 6.61-2l.41.82c.39.78.59 1.63.59 2.49 0 1.1-.33 2.18-.94 3.09l-1.06 1.6h2z" fill="#656d78"/></g><g><path d="m26.54 28.42c.88.53 1.46 1.48 1.46 2.58 0 .83-.34 1.58-.88 2.12s-1.29.88-2.12.88h-1v-6h1c.56 0 1.09.16 1.54.42z" fill="#f0d0b4"/></g><g><path d="m20.15 39.6.85 3.4-.21.11c-1.18.58-2.47.89-3.79.89s-2.61-.31-3.79-.89l-.21-.11.85-3.4c.67.26 1.39.4 2.15.4h2c.76 0 1.48-.14 2.15-.4z" fill="#f0d0b4"/></g><g><path d="m10 28c.07-1.82 1.26-3.42 3-4h7c2.21 0 4 1.79 4 4v6c0 1.38-.46 2.65-1.25 3.66-.66.87-1.57 1.54-2.6 1.94-.67.26-1.39.4-2.15.4h-2c-.76 0-1.48-.14-2.15-.4-2.25-.86-3.85-3.05-3.85-5.6v-5.84c0-.05 0-.11 0-.16z" fill="#f0d0b4"/></g><g><path d="m10 28v.16 5.84h-1c-.83 0-1.58-.34-2.12-.88s-.88-1.29-.88-2.12c0-.73.26-1.4.69-1.92.55-.66 1.38-1.08 2.31-1.08z" fill="#f0d0b4"/></g></g><g><circle cx="14" cy="30" r="1"/><circle cx="20" cy="30" r="1"/><path d="m19 33.764c-.381.762-1.147 1.236-2 1.236s-1.619-.474-2-1.236l-.105-.211-1.789.895.105.211c.722 1.444 2.174 2.341 3.789 2.341s3.067-.897 3.789-2.342l.105-.211-1.789-.895z"/><path d="m15 23.697h2v3.606h-2z" transform="matrix(.832 -.555 .555 .832 -11.458 13.158)"/><path d="m19 23.697h2v3.606h-2z" transform="matrix(.832 -.555 .555 .832 -10.786 15.377)"/><path d="m48.281 41.695 1.438-1.391c-2.06-2.13-4.801-3.304-7.719-3.304s-5.659 1.174-7.719 3.305l1.438 1.391c1.679-1.739 3.911-2.696 6.281-2.696s4.602.957 6.281 2.695z"/><path d="m46.771 43.362c-1.262-1.523-2.957-2.362-4.771-2.362s-3.509.839-4.771 2.362l1.541 1.275c.876-1.056 2.022-1.637 3.23-1.637s2.354.581 3.229 1.638z"/><path d="m39 48c0 1.654 1.346 3 3 3s3-1.346 3-3-1.346-3-3-3-3 1.346-3 3zm4 0c0 .552-.448 1-1 1s-1-.448-1-1 .448-1 1-1 1 .448 1 1z"/><path d="m48 55h-1c0-1.103-.897-2-2-2h-6c-1.103 0-2 .897-2 2v3c0 2.757 2.243 5 5 5 1.627 0 3.061-.793 3.974-2h2.026c1.654 0 3-1.346 3-3s-1.346-3-3-3zm-3 3c0 1.654-1.346 3-3 3s-3-1.346-3-3v-3h6zm3 1h-1.101c.066-.323.101-.658.101-1v-1h1c.552 0 1 .448 1 1s-.448 1-1 1z"/><path d="m40 1c-9.99 0-18.874 6.546-21.895 16h-4.362c-4.821 0-8.743 3.922-8.743 8.743 0 .942.151 1.873.448 2.765l.143.428c-.367.605-.591 1.306-.591 2.064 0 2.206 1.794 4 4 4h.08c.321 2.231 1.691 4.127 3.6 5.16l-.508 2.029-1.753.478c-5.546 1.513-9.419 6.585-9.419 12.333 0 3.309 2.691 6 6 6 0 1.103.897 2 2 2h16c1.103 0 2-.897 2-2 3.309 0 6-2.691 6-6 0-5.748-3.873-10.82-9.42-12.333l-1.752-.478-.508-2.029c.507-.275.972-.615 1.395-1.002 2.685 3.062 6.104 5.357 9.967 6.653l.637-1.896c-3.632-1.218-6.834-3.406-9.318-6.329.467-.778.785-1.652.92-2.586h7.699c.248.8.514 1.592.819 2.366l1.861-.732c-.211-.537-.405-1.083-.587-1.634h23.152c-1.799 2.924-4.304 5.42-7.365 7.191l1.002 1.73c7.092-4.102 11.498-11.735 11.498-19.921 0-12.683-10.317-23-23-23zm8.967 22c-.073-2.975-.455-5.641-1.03-8h11.008c1.167 2.446 1.869 5.147 2.005 8zm-20.098 0 .028-.043c.722-1.082 1.103-2.342 1.103-3.643 0-1.015-.24-2.03-.693-2.938l-.689-1.376h3.445c-.575 2.359-.957 5.025-1.03 8zm-1.869 8c0 1.103-.897 2-2 2v-4c1.103 0 2 .897 2 2zm7.136-16h11.728c.613 2.334 1.023 5.009 1.103 8h-13.933c.079-2.991.489-5.666 1.102-8zm.591-2c1.67-5.022 4.105-8.212 5.273-9.543 1.168 1.331 3.603 4.521 5.273 9.543zm23.127 0h-10.466c-1.452-4.71-3.566-7.99-5.04-9.86 6.556.733 12.193 4.502 15.506 9.86zm-20.21-9.85c-1.474 1.871-3.582 5.148-5.032 9.85h-10.482c3.354-5.421 9.071-9.116 15.514-9.85zm-16.621 11.85h6.674l-.252.168c-1.798 1.198-3.89 1.832-6.05 1.832h-1.186c.241-.683.506-1.354.814-2zm-14.023 16c0-1.103.897-2 2-2v4c-1.103 0-2-.897-2-2zm2 30v-2h16.002v2zm0-4v-8h16l.001 8zm14.054-12.403c4.678 1.276 7.946 5.554 7.946 10.403 0 2.206-1.794 4-4 4v-4h2v-2h-2v-4c0-1.103-.897-2-2-2h-16c-1.103 0-2 .897-2 2v4h-2v2h2v4c-2.206 0-4-1.794-4-4 0-4.849 3.268-9.127 7.945-10.403l1.962-.535c1.274.609 2.683.938 4.093.938s2.819-.329 4.092-.938zm-3.227-2.167c-1.792.726-3.861.726-5.654 0l.395-1.579c.462.097.941.149 1.432.149h2c.491 0 .97-.052 1.432-.149zm-1.827-3.43h-2c-2.757 0-5-2.243-5-5v-5.838c0-1.46.931-2.751 2.316-3.214l-.633-1.896c-1.824.608-3.139 2.127-3.541 3.948h-.142c-.636 0-1.23.163-1.765.428-.142-.551-.235-1.112-.235-1.685 0-3.718 3.025-6.743 6.743-6.743h7.651c2.178 0 4.297-.544 6.193-1.582.27.593.413 1.245.413 1.896 0 .905-.265 1.781-.767 2.533l-2.102 3.153h2.426c-.352.79-.803 1.525-1.331 2.212-.389-.126-.796-.212-1.226-.212h-2v7c0 2.757-2.243 5-5 5zm10.444-6c.344-.591.556-1.268.556-2 0-1.05-.415-1.998-1.078-2.712.751-1.004 1.344-2.105 1.778-3.288h1.322c.068 2.767.415 5.442 1.041 8zm4.578-8h13.946c-.072 2.771-.441 5.453-1.105 8h-11.735c-.664-2.547-1.035-5.223-1.106-8zm14.899 8c.626-2.56.978-5.24 1.046-8h11.999c-.135 2.806-.832 5.52-2.012 8z"/><path d="m20 3v-2c-7.168 0-13 5.832-13 13h2c0-6.065 4.935-11 11-11z"/><path d="m13 14c0-3.859 3.141-7 7-7v-2c-4.963 0-9 4.037-9 9z"/></g></g><g><g><g><circle cx="-160" cy="32" fill="#69d6f4" r="26"/></g><g><path d="m-151.03 7.59c.66 1.33 1.03 2.83 1.03 4.41 0 5.52-4.48 10-10 10s-10-4.48-10-10c0-1.58.37-3.08 1.03-4.41 1.63-3.31 5.03-5.59 8.97-5.59s7.34 2.28 8.97 5.59z" fill="#fcd770"/></g><g><path d="m-140 10c5.52 0 10 4.48 10 10 0 3.39-1.69 6.39-4.28 8.2-1.62 1.13-3.59 1.8-5.72 1.8-5.52 0-10-4.48-10-10 0-3.89 2.22-7.26 5.46-8.91 1.36-.7 2.91-1.09 4.54-1.09z" fill="#fcd770"/></g><g><path d="m-134.28 35.8c2.59 1.81 4.28 4.81 4.28 8.2 0 5.52-4.48 10-10 10-1.63 0-3.18-.39-4.54-1.09-3.24-1.65-5.46-5.02-5.46-8.91 0-5.52 4.48-10 10-10 2.13 0 4.1.67 5.72 1.8z" fill="#fcd770"/></g><g><path d="m-150 52c0 1.58-.37 3.08-1.03 4.41-1.63 3.31-5.03 5.59-8.97 5.59s-7.34-2.28-8.97-5.59c-.66-1.33-1.03-2.83-1.03-4.41 0-5.52 4.48-10 10-10s10 4.48 10 10z" fill="#fcd770"/></g><g><path d="m-180 34c5.52 0 10 4.48 10 10 0 3.89-2.22 7.26-5.46 8.91-1.36.7-2.91 1.09-4.54 1.09-5.52 0-10-4.48-10-10 0-3.39 1.69-6.39 4.28-8.2 1.62-1.13 3.59-1.8 5.72-1.8z" fill="#fcd770"/></g><g><path d="m-175.46 11.09c3.24 1.65 5.46 5.02 5.46 8.91 0 5.52-4.48 10-10 10-2.13 0-4.1-.67-5.72-1.8-2.59-1.81-4.28-4.81-4.28-8.2 0-5.52 4.48-10 10-10 1.63 0 3.18.39 4.54 1.09z" fill="#fcd770"/></g></g><g><path d="m115 139h-16c-1.103 0-2 .897-2 2v4c0 .366.106.705.278 1-.172.295-.278.634-.278 1v4c0 .364.098.706.269 1-.171.294-.269.636-.269 1v4c0 1.103.897 2 2 2h14c2.206 0 4-1.794 4-4 0-.899-.299-1.73-.802-2.399.486-.365.802-.947.802-1.601v-4c0-.366-.106-.705-.278-1 .172-.295.278-.634.278-1v-4c0-1.103-.897-2-2-2zm-8 2h2.556c-.344.591-.556 1.268-.556 2s.212 1.409.556 2h-2.556zm-4 0h2v4h-2zm-4 0h2v4h-2zm0 6h4v4h-4zm2 10h-2v-4h2zm4 0h-2v-4h2zm0-10h2.556c-.344.591-.556 1.268-.556 2s.212 1.409.556 2h-2.556zm8 10h-6v-4h6c1.103 0 2 .897 2 2s-.897 2-2 2zm2-6h-2-2c-1.103 0-2-.897-2-2s.897-2 2-2h4zm0-6h-2c-1.103 0-2-.897-2-2s.897-2 2-2h2z"/><path d="m159 129v-21c0-6.065-4.935-11-11-11h-8.262c-3.8 0-7.099 2.704-7.844 6.431l-1.514 7.569h-.845l-.017-.025c-.916-1.374-1.212-3.08-.812-4.682l.506-2.021-.971-.242c-2.108-.527-3.745-2.164-4.272-4.272l-.242-.972-1.195.301c-1.992.496-4.127-.096-5.576-1.545l-.956-.956-.956.956c-1.449 1.449-3.583 2.042-5.575 1.545l-1.196-.301-.242.972c-.527 2.108-2.164 3.745-4.272 4.272l-.971.242.506 2.021c.4 1.602.104 3.308-.812 4.682l-.017.025h-5.465v16.5l1.466 1.099c2.064 1.549 4.622 2.401 7.202 2.401 2.378 0 4.681-.697 6.659-2.017l.89-.593c2.392-1.595 5.587-1.808 8.174-.567-.243.332-.391.736-.391 1.177v19c0 .624.192 1.204.52 1.685-1.498.865-2.52 2.465-2.52 4.315 0 2.757 2.243 5 5 5h25.117c2.11 0 4.092-.823 5.58-2.319 1.488-1.495 2.303-3.48 2.292-5.68-.003-.804-.135-1.599-.394-2.377-.988-2.965-1.499-6.051-1.518-9.171l-.013-2.046c2.466-2.076 3.936-5.172 3.936-8.407zm-53.768-23.191-.035-.143c2.061-.803 3.687-2.434 4.48-4.499 2.261.35 4.583-.309 6.322-1.788 1.738 1.479 4.06 2.136 6.322 1.788.794 2.065 2.419 3.696 4.48 4.499l-.035.143c-.436 1.744-.247 3.576.494 5.191h-2.321c-.499-4.493-4.316-8-8.941-8s-8.442 3.507-8.941 8h-2.321c.743-1.615.933-3.448.496-5.191zm17.688 5.191h-13.84c.488-3.386 3.401-6 6.92-6s6.432 2.614 6.92 6zm-5.11 14c-2.037 0-4.009.597-5.702 1.727l-.89.593c-1.649 1.1-3.568 1.681-5.55 1.681-2.149 0-4.281-.711-6.003-2.001l-.665-.5v-13.5h30.98l-.81 4.047c-.113.566-.171 1.147-.171 1.725 0 1.637.755 3.198 2.021 4.229h-6.02v2h8v3.362c0 2.003 1.189 3.807 3.031 4.596l1.15.493c-.107.57-.181 1.15-.181 1.747 0 1.314.284 2.607.813 3.803-1.918.852-3.952 1.438-6.105 1.745-1.569.225-2.708 1.533-2.708 3.112 0 .404.083.787.223 1.143h-2.223v-16c0-1.103-.897-2-2-2h-.764l-1.83-.915c-1.419-.712-3.008-1.087-4.596-1.087zm25.19-10c0 1.103-.897 2-2 2h-2v-3.414l-1.632-1.632c1.046-1.361 1.632-3.057 1.632-4.782v-.172h9c.552 0 1 .448 1 1v3h1c.552 0 1 .448 1 1 0 .378-.147.732-.414 1l-1.586 1.586v8.796l-4 2v-3.102l1.242-.311-.484-1.939-3.573.893c-.205.051-.415.077-.623.077-1.219 0-2.238-.858-2.495-2h1.933c2.206 0 4-1.794 4-4zm7.592 20.797c-1.347-.395-2.469-1.352-3.085-2.623.956-1.9 1.493-4.016 1.493-6.227 0-1.072.872-1.944 2-1.945h.001c.533 0 1.035.208 1.412.585.378.377.586.879.586 1.413.001 3.163-.867 6.183-2.407 8.797zm2.461-.357.025 4.025c.016 2.545.342 5.068.966 7.535h-11.044c0-.711-.376-1.332-.936-1.687l1.342-.587c4.307-1.885 7.675-5.222 9.647-9.286zm-6.017-8.84c-.01.116-.035.228-.035.347-.001 4.071-2.051 7.809-5.484 9.998l-.693.442c-.401.256-.81.494-1.224.723-.393-.918-.6-1.909-.6-2.914 0-2.824 1.569-5.363 4.096-6.627zm-5.137 12.473.693-.442c1.484-.946 2.744-2.143 3.747-3.513.786 1.078 1.873 1.902 3.116 2.39-1.753 2.303-4.088 4.177-6.851 5.386l-4.813 2.106h-5.648c-.63 0-1.143-.513-1.143-1.143 0-.574.417-1.05 1.071-1.143 3.522-.502 6.828-1.728 9.828-3.641zm-.899 7.927v2h-17c-.552 0-1-.448-1-1v-1zm-18-2v-16h2v16zm6 12h-5c-1.654 0-3-1.346-3-3s1.346-3 3-3h5zm24.279-1.729c-1.109 1.115-2.588 1.729-4.162 1.729h-18.117v-6h10c1.103 0 2-.897 2-2h11.624c.029.09.049.182.079.271.188.563.283 1.146.286 1.828.008 1.575-.599 3.055-1.71 4.172zm1.769-20.693-.048-7.584h-.001c-.002-1.066-.417-2.068-1.171-2.822-.744-.743-1.728-1.152-2.828-1.165v-7.593l1-1c.645-.645 1-1.502 1-2.414 0-1.304-.836-2.416-2-2.829v-1.171c0-1.654-1.346-3-3-3h-10c-.552 0-1-.448-1-1s.448-1 1-1h1v-2h-1c-1.654 0-3 1.346-3 3 0 1.302.839 2.402 2 2.816v.356c0 1.534-.622 3.036-1.707 4.121l-.707.707 2.414 2.414v4.024c0 2.516 2.046 4.562 4.562 4.562.37 0 .742-.046 1.106-.137l.332-.083v3.602l-.799.399c-2.051 1.026-3.597 2.717-4.451 4.738l-.932-.399c-1.104-.474-1.818-1.557-1.818-2.758v-3.362c0-.939-.448-1.837-1.2-2.399l-1.417-1.063c-.866-.649-1.383-1.684-1.383-2.766 0-.446.044-.895.132-1.332l2.724-13.616c.559-2.795 3.033-4.823 5.883-4.823h8.261c4.963 0 9 4.037 9 9v21c0 2.033-.711 4.002-1.952 5.577z"/><circle cx="142" cy="110" r="1"/><path d="m101 115h8v2h-8z"/><path d="m111 115h2v2h-2z"/><path d="m115 115h12v2h-12z"/><path d="m101 121h8v2h-8z"/><path d="m113 119h10v2h-10z"/><path d="m-156.2 46.6-1.6-1.2-2.2 2.933-2.2-2.933-1.6 1.2 2.8 3.733v.667h-2v2h2v2h-2v2h2v2h2v-2h2v-2h-2v-2h2v-2h-2v-.667z"/><path d="m-161 16.816v2.184h2v-2h2v-3c0-1.654-1.346-3-3-3-.551 0-1-.448-1-1v-1h1c.551 0 1 .448 1 1v1h2v-1c0-1.302-.839-2.402-2-2.816v-2.184h-2v2h-2v3c0 1.654 1.346 3 3 3 .551 0 1 .448 1 1v1h-1c-.551 0-1-.448-1-1v-1h-2v1c0 1.302.839 2.402 2 2.816z"/><path d="m-142.899 17h-2.101v2h2v2h-2v2h2.101c.465 2.279 2.484 4 4.899 4h1v-2h-1c-1.302 0-2.402-.839-2.816-2h1.816v-2h-2v-2h2v-2h-1.816c.414-1.161 1.514-2 2.816-2h1v-2h-1c-2.414 0-4.434 1.721-4.899 4z"/><path d="m-129 20c0-6.065-4.935-11-11-11-1.582 0-3.084.342-4.445.947-1.824-1.288-3.79-2.344-5.863-3.141-1.858-3.453-5.505-5.806-9.692-5.806s-7.833 2.352-9.691 5.803c-2.075.799-4.042 1.856-5.865 3.143-1.36-.604-2.862-.946-4.444-.946-6.065 0-11 4.935-11 11 0 3.508 1.657 6.63 4.222 8.646-.138 1.109-.222 2.233-.222 3.354s.084 2.245.222 3.354c-2.565 2.016-4.222 5.138-4.222 8.646 0 6.065 4.935 11 11 11 1.582 0 3.084-.342 4.445-.946 1.822 1.287 3.789 2.344 5.864 3.143 1.858 3.451 5.504 5.803 9.691 5.803s7.833-2.352 9.691-5.803c2.076-.799 4.042-1.856 5.864-3.143 1.361.604 2.863.946 4.445.946 6.065 0 11-4.935 11-11 0-3.508-1.657-6.63-4.222-8.646.138-1.109.222-2.233.222-3.354s-.084-2.245-.222-3.354c2.565-2.016 4.222-5.138 4.222-8.646zm-17.371-8.951c-1.108.791-2.065 1.777-2.815 2.914.116-.638.186-1.292.186-1.963 0-.896-.12-1.763-.323-2.598 1.018.482 2.005 1.03 2.952 1.647zm-13.629-8.049c4.962 0 9 4.037 9 9s-4.038 9-9 9-9-4.037-9-9 4.038-9 9-9zm-9 17c0-.671-.07-1.325-.186-1.964 1.969 2.986 5.349 4.964 9.186 4.964s7.217-1.978 9.186-4.964c-.116.639-.186 1.293-.186 1.964 0 1.801.444 3.498 1.214 5h-20.429c.771-1.502 1.215-3.199 1.215-5zm-1.677-10.599c-.203.835-.323 1.702-.323 2.599 0 .671.07 1.325.186 1.964-.75-1.138-1.708-2.124-2.816-2.915.947-.618 1.934-1.166 2.953-1.648zm-18.323 10.599c0-4.963 4.038-9 9-9s9 4.037 9 9-4.038 9-9 9-9-4.037-9-9zm16.175 15.68c-1.928-1.665-4.433-2.68-7.175-2.68-1.761 0-3.42.426-4.897 1.165-.062-.72-.103-1.443-.103-2.165s.041-1.445.103-2.165c1.477.739 3.136 1.165 4.897 1.165 2.742 0 5.247-1.015 7.175-2.68-.116 1.211-.175 2.441-.175 3.68s.059 2.469.175 3.68zm-7.175 17.32c-4.962 0-9-4.037-9-9s4.038-9 9-9 9 4.037 9 9-4.038 9-9 9zm6.37-.049c1.108-.791 2.065-1.777 2.816-2.915-.116.639-.186 1.293-.186 1.964 0 .897.12 1.764.323 2.599-1.019-.483-2.006-1.031-2.953-1.648zm13.63 8.049c-4.962 0-9-4.037-9-9s4.038-9 9-9 9 4.037 9 9-4.038 9-9 9zm9-17c0 .671.07 1.325.186 1.964-1.969-2.986-5.349-4.964-9.186-4.964s-7.217 1.978-9.186 4.964c.116-.639.186-1.293.186-1.964 0-1.801-.444-3.498-1.214-5h20.429c-.771 1.502-1.215 3.199-1.215 5zm-19.654-7c-.228-1.631-.346-3.305-.346-5 0-1.694.118-3.369.346-5h21.308c.228 1.631.346 3.306.346 5 0 1.695-.118 3.369-.346 5zm21.331 17.599c.203-.835.323-1.702.323-2.599 0-.671-.07-1.325-.186-1.964.75 1.138 1.708 2.124 2.816 2.915-.947.617-1.934 1.166-2.953 1.648zm18.323-10.599c0 4.963-4.038 9-9 9s-9-4.037-9-9 4.038-9 9-9 9 4.037 9 9zm-16.175-15.68c1.928 1.665 4.433 2.68 7.175 2.68 1.761 0 3.42-.426 4.897-1.165.062.72.103 1.443.103 2.165s-.041 1.445-.103 2.165c-1.477-.739-3.136-1.165-4.897-1.165-2.742 0-5.247 1.015-7.175 2.68.116-1.211.175-2.441.175-3.68s-.059-2.469-.175-3.68zm7.175.68c-4.962 0-9-4.037-9-9s4.038-9 9-9 9 4.037 9 9-4.038 9-9 9z"/><path d="m-137 39.184v-2.184h-2v2h-2v-2h-2v2h-2v2h2v6h-2v2h2v2h2v-2h2v2h2v-2.184c1.161-.414 2-1.514 2-2.816 0-.771-.301-1.468-.78-2 .48-.532.78-1.229.78-2 0-1.302-.839-2.402-2-2.816zm-1 7.816h-3v-2h3c.551 0 1 .448 1 1s-.449 1-1 1zm0-4h-3v-2h3c.551 0 1 .448 1 1s-.449 1-1 1z"/><path d="m-183 24.112c-.464.088-.918.23-1.342.441l-1.105.553.895 1.789 1.105-.553c.896-.447 2-.447 2.896 0 .861.431 1.826.658 2.788.658h.763v-2h-.764c-.654 0-1.309-.154-1.895-.447-.423-.211-.877-.353-1.341-.441v-3.112h6v-2h-6.586l-.879-.879c-.34-.341-.535-.812-.535-1.293 0-1.008.82-1.828 1.829-1.828h.171c1.103 0 2 .897 2 2h2c0-2.206-1.794-4-4-4h-.171c-2.111 0-3.829 1.718-3.829 3.828 0 .789.242 1.538.681 2.172h-2.681v2h4z"/><path d="m-178 38h-7v2h2v2h-2v2h2v2h-2v2h2v2h2v-2h2v-2h-2v-2h3c1.654 0 3-1.346 3-3s-1.346-3-3-3zm0 4h-3v-2h3c.551 0 1 .448 1 1s-.449 1-1 1z"/></g></g></svg>