<svg id="Capa_1" enable-background="new 0 0 512 512" height="512" viewBox="0 0 512 512" width="512" xmlns="http://www.w3.org/2000/svg"><g><g><g><path d="m151.196 206.3h-110.563c-18.299 0-33.133 14.834-33.133 33.133v182.233c0 18.299 14.834 33.133 33.133 33.133h24.85c4.575 0 8.283 3.709 8.283 8.283v29.702c0 6.47 5.245 11.714 11.714 11.714 3.107 0 6.087-1.234 8.283-3.431l43.843-43.843c1.553-1.553 3.66-2.426 5.857-2.426h162.237c18.299 0 33.133-14.834 33.133-33.133v-84.513z" fill="#e9f1ff"/><path d="m82.333 272.567h-33.7c-4.418 0-8-3.582-8-8v-17.133c0-4.418 3.582-8 8-8h33.7c4.418 0 8 3.582 8 8v17.133c0 4.418-3.581 8-8 8z" fill="#77d4f5"/><path d="m174.841 338.833h-125.924c-4.575 0-8.283-3.709-8.283-8.283v-16.567c0-4.575 3.709-8.283 8.283-8.283h125.925v33.133z" fill="#3e4f55"/><path d="m297.7 405.1h-249.067c-4.418 0-8-3.582-8-8v-17.133c0-4.418 3.582-8 8-8h249.067c4.418 0 8 3.582 8 8v17.133c0 4.418-3.582 8-8 8z" fill="#3e4f55"/><g><g><g><path d="m114.607 457.226-39.973 39.973c1.744 4.28 5.94 7.301 10.847 7.301 3.107 0 6.087-1.234 8.283-3.431l43.843-43.843c1.553-1.553 3.66-2.426 5.857-2.426h-23c-2.196 0-4.303.873-5.857 2.426z" fill="#d7e4f7"/></g><g><path d="m338.833 337.154-23-16.04v100.552c0 18.299-14.834 33.133-33.133 33.133h23c18.299 0 33.133-14.834 33.133-33.133z" fill="#d7e4f7"/></g></g></g><path d="m297.7 371.967h-23c4.418 0 8 3.582 8 8v17.133c0 4.418-3.582 8-8 8h23c4.418 0 8-3.582 8-8v-17.133c0-4.419-3.582-8-8-8z" fill="#303d42"/><path d="m82.333 239.433h-23c4.418 0 8 3.582 8 8v17.133c0 4.418-3.582 8-8 8h23c4.418 0 8-3.582 8-8v-17.133c0-4.418-3.581-8-8-8z" fill="#69b4f4"/></g><g><path d="m173.167 174.844v-134.21c0-18.299 14.834-33.133 33.133-33.133h265.066c18.299 0 33.133 14.834 33.133 33.133v182.233c0 18.299-14.834 33.133-33.133 33.133h-24.85c-4.575 0-8.283 3.709-8.283 8.283v29.702c0 6.47-5.245 11.714-11.714 11.714-3.107 0-6.086-1.234-8.283-3.431l-43.843-43.843c-.708-.708-1.531-1.275-2.425-1.682z" fill="#36f595"/><path d="m214.3 73.767h33.7c4.418 0 8-3.582 8-8v-17.134c0-4.418-3.582-8-8-8h-33.7c-4.418 0-8 3.582-8 8v17.133c0 4.419 3.582 8.001 8 8.001z" fill="#e9f1ff"/><path d="m337.159 206.3h125.925c4.575 0 8.283-3.709 8.283-8.283v-16.567c0-4.575-3.709-8.283-8.283-8.283h-125.925z" fill="#3e4f55"/><path d="m214.3 140.033h249.067c4.418 0 8-3.582 8-8v-17.133c0-4.418-3.582-8-8-8h-249.067c-4.418 0-8 3.582-8 8v17.133c0 4.419 3.582 8 8 8z" fill="#3e4f55"/><g fill="#23db9e"><path d="m415.233 264.283v29.702c0 1.563-.312 3.051-.867 4.414l3.869 3.869c2.197 2.197 5.176 3.431 8.283 3.431 6.47 0 11.714-5.245 11.714-11.714v-29.702c0-4.575 3.708-8.283 8.283-8.283h-23c-4.573 0-8.282 3.709-8.282 8.283z"/><path d="m471.367 7.5h-23c18.299 0 33.133 14.834 33.133 33.133v182.233c0 18.299-14.834 33.133-33.133 33.133h23c18.299 0 33.133-14.834 33.133-33.133v-182.233c0-18.299-14.834-33.133-33.133-33.133z"/></g><path d="m463.367 106.9h-23c4.418 0 8 3.582 8 8v17.133c0 4.418-3.582 8-8 8h23c4.418 0 8-3.582 8-8v-17.133c0-4.418-3.582-8-8-8z" fill="#303d42"/><path d="m463.083 173.167h-23c4.575 0 8.283 3.709 8.283 8.283v16.567c0 4.575-3.709 8.283-8.283 8.283h23c4.575 0 8.283-3.709 8.283-8.283v-16.567c.001-4.575-3.708-8.283-8.283-8.283z" fill="#303d42"/><path d="m248 40.633h-22.9c4.418 0 8 3.582 8 8v17.133c0 4.418-3.582 8-8 8h22.9c4.418 0 8-3.582 8-8v-17.133c0-4.418-3.582-8-8-8z" fill="#d7e4f7"/></g><g><circle cx="256" cy="256" fill="#77d4f5" r="115.967"/><path d="m256 140.033c-3.847 0-7.649.192-11.4.558 58.695 5.728 104.567 55.209 104.567 115.409s-45.871 109.681-104.567 115.409c3.751.366 7.553.558 11.4.558 64.047 0 115.967-51.92 115.967-115.967s-51.92-115.967-115.967-115.967z" fill="#69b4f4"/><path d="m305.7 223.654c0-26.56-20.531-49.044-47.055-50.419-28.65-1.484-52.345 21.306-52.345 49.631v22.567h33.133v-22.132c0-8.504 6.23-15.965 14.683-16.898 9.993-1.102 18.451 6.692 18.451 16.462v22.567h33.133z" fill="#d7e4f7"/><path d="m258.645 173.235c-4.897-.254-9.643.217-14.157 1.288 22.106 5.298 38.212 25.61 38.212 49.13v21.78h23v-21.78c0-26.559-20.531-49.043-47.055-50.418z" fill="#bed2ee"/><path d="m305.983 322.267h-99.967c-4.418 0-8-3.582-8-8v-66.833c0-4.418 3.582-8 8-8h99.967c4.418 0 8 3.582 8 8v66.833c0 4.418-3.581 8-8 8z" fill="#ffda2d"/><path d="m305.983 239.433h-23c4.418 0 8 3.582 8 8v66.833c0 4.418-3.582 8-8 8h23c4.418 0 8-3.582 8-8v-66.833c0-4.418-3.581-8-8-8z" fill="#fdbf00"/></g></g><g><path d="m82.333 280.067c8.547 0 15.5-6.953 15.5-15.5v-17.134c0-8.547-6.953-15.5-15.5-15.5h-33.7c-8.547 0-15.5 6.953-15.5 15.5v17.134c0 8.547 6.953 15.5 15.5 15.5zm-34.2-15.5v-17.134c0-.276.224-.5.5-.5h33.7c.276 0 .5.224.5.5v17.134c0 .276-.224.5-.5.5h-33.7c-.276 0-.5-.224-.5-.5z"/><path d="m471.367 0h-200.54c-4.142 0-7.5 3.358-7.5 7.5s3.358 7.5 7.5 7.5h200.54c14.134 0 25.633 11.499 25.633 25.633v182.233c0 14.134-11.499 25.633-25.633 25.633h-24.85c-8.703 0-15.783 7.08-15.783 15.783v29.703c0 2.324-1.891 4.214-4.214 4.214-1.125 0-2.184-.439-2.98-1.234l-43.843-43.843c-.086-.086-.181-.162-.269-.246-.342-13.69-2.924-26.833-7.391-39.077h91.047c8.703 0 15.783-7.08 15.783-15.783v-16.566c0-8.703-7.081-15.784-15.783-15.784h-123.015c-7.559-7.039-15.994-13.149-25.13-18.133h148.427c8.547 0 15.5-6.953 15.5-15.5v-17.133c0-8.547-6.953-15.5-15.5-15.5h-249.066c-8.547 0-15.5 6.953-15.5 15.5v17.133c0 4.75 2.152 9.003 5.527 11.848-8.444 3.907-16.374 8.74-23.661 14.369v-117.617c.001-14.134 11.5-25.633 25.634-25.633h34.527c4.142 0 7.5-3.358 7.5-7.5s-3.358-7.5-7.5-7.5h-34.527c-22.405 0-40.633 18.228-40.633 40.633v131.297c-7.483 8.035-13.909 17.065-19.057 26.869h-105.977c-22.405.001-40.633 18.229-40.633 40.634v182.233c0 22.406 18.228 40.634 40.634 40.634h24.85c.432 0 .783.352.783.784v29.702c0 10.595 8.62 19.214 19.214 19.214 5.132 0 9.957-1.998 13.587-5.628l43.843-43.843c.146-.146.348-.23.554-.23h86.135c4.142 0 7.5-3.358 7.5-7.5s-3.358-7.5-7.5-7.5h-86.136c-4.216 0-8.179 1.642-11.16 4.623l-43.842 43.842c-.796.796-1.855 1.235-2.981 1.235-2.324 0-4.214-1.891-4.214-4.214v-29.702c0-8.703-7.08-15.784-15.783-15.784h-24.85c-14.135.001-25.634-11.498-25.634-25.632v-182.233c0-14.134 11.499-25.633 25.633-25.633h99.331c-4.806 13.173-7.431 27.385-7.431 42.2s2.625 29.028 7.431 42.2h-91.048c-8.703 0-15.783 7.08-15.783 15.783v16.566c0 8.703 7.081 15.784 15.783 15.784h123.014c7.559 7.039 15.994 13.149 25.13 18.133h-148.427c-8.547 0-15.5 6.953-15.5 15.5v17.133c0 8.547 6.953 15.5 15.5 15.5h249.067c8.547 0 15.5-6.953 15.5-15.5v-17.133c0-4.75-2.152-9.003-5.528-11.849 8.444-3.907 16.374-8.74 23.661-14.369v67.917c0 14.134-11.499 25.633-25.633 25.633h-46.1c-4.142 0-7.5 3.358-7.5 7.5s3.358 7.5 7.5 7.5h46.1c22.405 0 40.633-18.228 40.633-40.633v-81.597c16.906-18.153 28.418-41.386 31.966-67.13l34.633 34.633c3.629 3.629 8.454 5.628 13.586 5.628 10.595 0 19.214-8.62 19.214-19.214v-29.703c0-.432.352-.783.783-.783h24.85c22.405 0 40.633-18.228 40.633-40.633v-182.234c.002-22.405-18.226-40.633-40.631-40.633zm-7.5 181.45v16.566c0 .432-.352.783-.783.783h-97.694c-3.357-6.394-7.257-12.459-11.641-18.133h109.334c.432.001.784.352.784.784zm-249.567-48.917c-.276 0-.5-.224-.5-.5v-17.133c0-.276.224-.5.5-.5h249.066c.276 0 .5.224.5.5v17.133c0 .276-.224.5-.5.5zm-166.167 198.017v-16.566c0-.432.352-.783.783-.783h97.694c3.357 6.394 7.257 12.459 11.641 18.133h-109.335c-.431 0-.783-.352-.783-.784zm249.567 48.917c.276 0 .5.224.5.5v17.133c0 .276-.224.5-.5.5h-249.067c-.276 0-.5-.224-.5-.5v-17.133c0-.276.224-.5.5-.5zm-41.7-15c-59.809 0-108.467-48.658-108.467-108.467s48.658-108.467 108.467-108.467 108.467 48.658 108.467 108.467-48.658 108.467-108.467 108.467z"/><path d="m214.3 33.133c-8.547 0-15.5 6.953-15.5 15.5v17.133c0 8.547 6.953 15.5 15.5 15.5h33.7c8.547 0 15.5-6.953 15.5-15.5v-17.133c0-8.547-6.953-15.5-15.5-15.5zm34.2 15.5v17.133c0 .276-.224.5-.5.5h-33.7c-.276 0-.5-.224-.5-.5v-17.133c0-.276.224-.5.5-.5h33.7c.276 0 .5.224.5.5z"/><path d="m313.2 233.727v-10.86c0-31.54-25.66-57.2-57.2-57.2s-57.2 25.66-57.2 57.2v10.86c-4.919 2.601-8.283 7.765-8.283 13.706v66.834c0 8.547 6.953 15.5 15.5 15.5h99.967c8.547 0 15.5-6.953 15.5-15.5v-66.834c-.001-5.941-3.364-11.105-8.284-13.706zm-99.4-10.86c0-23.269 18.931-42.2 42.2-42.2s42.2 18.931 42.2 42.2v9.066h-18.133v-9.066c0-13.27-10.796-24.067-24.067-24.067s-24.067 10.796-24.067 24.067v9.066h-18.133zm33.133 9.066v-9.066c0-4.999 4.067-9.067 9.067-9.067 4.999 0 9.067 4.067 9.067 9.067v9.066zm59.55 82.334c0 .276-.224.5-.5.5h-99.967c-.276 0-.5-.224-.5-.5v-66.834c0-.276.224-.5.5-.5h.283 99.4.283c.276 0 .5.224.5.5v66.834z"/><path d="m259.969 265.067h-8.283c-4.142 0-7.5 3.358-7.5 7.5 0 3.001 1.767 5.584 4.315 6.782v9.784c0 4.142 3.358 7.5 7.5 7.5s7.5-3.358 7.5-7.5v-9.951c2.361-1.263 3.969-3.751 3.969-6.616-.001-4.141-3.359-7.499-7.501-7.499z"/></g></g></svg>