<svg id="Layer_5" enable-background="new 0 0 64 64" height="512" viewBox="0 0 64 64" width="512" xmlns="http://www.w3.org/2000/svg"><g><g><g><path d="m6 16c-2.21 0-4 1.79-4 4v28c0 2.21 1.79 4 4 4h42c2.21 0 4-1.79 4-4v-32z" fill="#ccd1d9"/></g><g><path d="m62 8v7.88c0 4.36-1.17 8.56-3.29 12.21-1.67 2.89-3.95 5.44-6.71 7.44-.72.54-1.48 1.03-2.26 1.48-.55.31-1.13.55-1.74.72-.65.18-1.32.27-2 .27-1.31 0-2.6-.34-3.74-.99-3.82-2.19-6.9-5.32-9.02-9.01-1.42-2.46-2.4-5.17-2.88-8-.23-1.31-.35-2.65-.36-4 0-.04 0-.08 0-.12v-7.88c0-1.1.9-2 2-2h.79c4.7 0 9.3-1.39 13.21-4 3.91 2.61 8.51 4 13.21 4h.79c1.1 0 2 .9 2 2z" fill="#aab2bd"/></g><g><path d="m46.14 6.73c-.05-.02-.09-.05-.14-.07-3.7 2-7.78 3.13-12 3.31v5.91c0 7.28 3.93 14.04 10.25 17.66.53.3 1.14.46 1.75.46s1.22-.16 1.75-.46c6.32-3.62 10.25-10.38 10.25-17.66v-5.91c-4.17-.18-8.2-1.28-11.86-3.24z" fill="#fcd770"/></g><g><path d="m54 13v10l-6.67-5z" fill="#dfb28b"/></g><g><path d="m54 13-6.67 5-1.33 1-1.33-1-6.67-5h8z" fill="#cf9e76"/></g><g><path d="m54 23h-8-8l6.67-5 1.33 1 1.33-1z" fill="#d3a06c"/></g><g><path d="m48 37.73v5.27c0 .55-.45 1-1 1h-40c-.55 0-1-.45-1-1v-15h27.24c2.12 3.69 5.2 6.82 9.02 9.01 1.14.65 2.43.99 3.74.99.68 0 1.35-.09 2-.27z" fill="#f0d0b4"/></g><g><path d="m44.67 18-6.67 5v-10z" fill="#dfb28b"/></g><g><path d="m42 62h-30c0-1.1.45-2.1 1.17-2.83.73-.72 1.73-1.17 2.83-1.17h2 18 2c2.21 0 4 1.79 4 4z" fill="#969faa"/></g><g><path d="m34 52 2 6h-18l2-6z" fill="#aab2bd"/></g><g><path d="m33.24 28h-27.24v-7c0-.55.45-1 1-1h23.36c.48 2.83 1.46 5.54 2.88 8z" fill="#b4dd7f"/></g><g><path d="m10 32h8v8h-8z" fill="#ff826e"/></g></g><g><path d="m41 47h8v2h-8z"/><path d="m37 47h2v2h-2z"/><path d="m46.476 5.784-.476-.257-.476.257c-3.591 1.941-7.483 3.015-11.567 3.19l-.957.042v6.86c0 7.639 4.12 14.738 10.753 18.527.684.391 1.46.597 2.247.597.786 0 1.563-.206 2.248-.597 6.632-3.79 10.752-10.888 10.752-18.527v-6.86l-.957-.041c-4.085-.176-7.977-1.249-11.567-3.191zm-5.476 16.216 3.667-2.75 1.333 1 1.333-1 3.667 2.75zm-2-7 4 3-4 3zm14 6-4-3 4-3zm-7-3.25-5-3.75h10zm-11-1.874v-4.96c3.492-.264 6.844-1.152 10-2.635v3.719h-8v12h8v8.77c-.084-.036-.175-.057-.255-.103-6.011-3.435-9.745-9.868-9.745-16.791zm22 0c0 6.923-3.734 13.356-9.743 16.79-.081.046-.172.067-.257.104v-8.77h8v-12h-8v-3.719c3.156 1.483 6.508 2.371 10 2.635z"/><path d="m60 5h-.789c-4.52 0-8.896-1.325-12.656-3.832l-.555-.37-.555.37c-3.759 2.507-8.136 3.832-12.656 3.832h-.789c-1.654 0-3 1.346-3 3v7h-23c-2.757 0-5 2.243-5 5v28c0 2.757 2.243 5 5 5h12.612l-1.333 4h-1.279c-2.757 0-5 2.243-5 5v1h32v-1c0-2.757-2.243-5-5-5h-1.279l-1.333-4h12.612c2.757 0 5-2.243 5-5v-11.959c6.237-4.751 10-12.211 10-20.165v-7.876c0-1.654-1.346-3-3-3zm-53 24h25.687c2.196 3.623 5.288 6.708 9.081 8.876 1.286.735 2.749 1.124 4.232 1.124.335 0 .669-.026 1-.065v4.065h-40zm0-2v-6h22.53c.434 2.089 1.128 4.103 2.057 6zm33.829 34h-27.658c.413-1.164 1.525-2 2.829-2h22c1.304 0 2.416.836 2.829 2zm-6.217-4h-15.224l1.333-4h12.558zm16.388-9c0 1.654-1.346 3-3 3h-42c-1.654 0-3-1.346-3-3v-28c0-1.654 1.346-3 3-3h23.038c.03.671.081 1.339.164 2h-22.202c-1.103 0-2 .897-2 2v22c0 1.103.897 2 2 2h40c1.103 0 2-.897 2-2v-4.559c.423-.159.838-.34 1.232-.565.262-.15.512-.315.768-.473zm10-32.124c0 8.354-4.506 16.119-11.76 20.264-1.97 1.125-4.511 1.125-6.48 0-7.254-4.145-11.76-11.91-11.76-20.264v-7.876c0-.552.449-1 1-1h.789c4.695 0 9.249-1.314 13.211-3.809 3.962 2.495 8.516 3.809 13.211 3.809h.789c.551 0 1 .448 1 1z"/><path d="m13 23h2v2h-2z"/><path d="m17 23h2v2h-2z"/><path d="m9 23h2v2h-2z"/><path d="m9 41h10v-10h-10zm2-8h6v6h-6z"/><path d="m21 31h2v2h-2z"/><path d="m25 31h7v2h-7z"/><path d="m21 35h11v2h-11z"/><path d="m21 39h11v2h-11z"/></g></g></svg>